<svg width="19" height="20" viewBox="0 0 19 20" fill="none" xmlns="http://www.w3.org/2000/svg">
<path d="M18.292 8.26978L10.4795 0.457284C10.1865 0.16448 9.78923 0 9.37501 0C8.96079 0 8.56351 0.16448 8.27052 0.457284L0.458017 8.26978C0.312221 8.4145 0.196649 8.58675 0.118021 8.77653C0.0393932 8.96631 -0.000721344 9.16983 9.81786e-06 9.37525V18.7503C9.81786e-06 18.9575 0.08232 19.1562 0.228833 19.3027C0.375346 19.4492 0.574059 19.5315 0.78126 19.5315H7.03126C7.23846 19.5315 7.43717 19.4492 7.58369 19.3027C7.7302 19.1562 7.81251 18.9575 7.81251 18.7503V13.2815H10.9375V18.7503C10.9375 18.9575 11.0198 19.1562 11.1663 19.3027C11.3128 19.4492 11.5116 19.5315 11.7188 19.5315H17.9688C18.176 19.5315 18.3747 19.4492 18.5212 19.3027C18.6677 19.1562 18.75 18.9575 18.75 18.7503V9.37525C18.7507 9.16983 18.7106 8.96631 18.632 8.77653C18.5534 8.58675 18.4378 8.4145 18.292 8.26978ZM17.1875 17.969H12.5V12.5003C12.5 12.2931 12.4177 12.0943 12.2712 11.9478C12.1247 11.8013 11.926 11.719 11.7188 11.719H7.03126C6.82406 11.719 6.62535 11.8013 6.47883 11.9478C6.33232 12.0943 6.25001 12.2931 6.25001 12.5003V17.969H1.56251V9.37525L9.37501 1.56275L17.1875 9.37525V17.969Z" fill="black"/>
</svg>
