<svg width="24" height="24" viewBox="0 0 24 24" fill="none" xmlns="http://www.w3.org/2000/svg">
<mask id="path-1-outside-1_138_879" maskUnits="userSpaceOnUse" x="2" y="2" width="20" height="20" fill="black">
<rect fill="white" x="2" y="2" width="20" height="20"/>
<path d="M12 21C10.7613 21 9.59467 20.7633 8.50001 20.29C7.40534 19.816 6.45201 19.1727 5.64001 18.36C4.82801 17.5473 4.18467 16.594 3.71001 15.5C3.23534 14.406 2.99867 13.2393 3.00001 12C3.00001 10.7573 3.23667 9.58967 3.71001 8.497C4.18401 7.40367 4.82734 6.45133 5.64001 5.64C6.45267 4.82867 7.40601 4.18533 8.50001 3.71C9.59467 3.23667 10.7613 3 12 3C13.2427 3 14.4103 3.23667 15.503 3.71C16.5963 4.184 17.549 4.82733 18.361 5.64C19.173 6.45267 19.816 7.405 20.29 8.497C20.7633 9.59033 21 10.758 21 12C21 13.2387 20.7633 14.4053 20.29 15.5C19.816 16.5947 19.1727 17.548 18.36 18.36C17.5473 19.172 16.595 19.8153 15.503 20.29C14.411 20.7647 13.2433 21.0013 12 21ZM12 20.008C12.5867 19.254 13.0707 18.5137 13.452 17.787C13.8327 17.0603 14.1423 16.247 14.381 15.347H9.61901C9.88367 16.2977 10.1997 17.1363 10.567 17.863C10.935 18.5897 11.4127 19.3047 12 20.008ZM10.727 19.858C10.2603 19.308 9.83434 18.628 9.44901 17.818C9.06367 17.0087 8.77701 16.1847 8.58901 15.346H4.75401C5.32734 16.5893 6.13967 17.6093 7.19101 18.406C8.24301 19.202 9.42167 19.686 10.727 19.858ZM13.273 19.858C14.5783 19.686 15.757 19.202 16.809 18.406C17.8603 17.6093 18.6727 16.5893 19.246 15.346H15.412C15.1587 16.1973 14.8397 17.0277 14.455 17.837C14.0697 18.647 13.6757 19.3213 13.273 19.858ZM4.34601 14.347H8.38101C8.30501 13.9363 8.25167 13.5363 8.22101 13.147C8.18901 12.7583 8.17301 12.376 8.17301 12C8.17301 11.624 8.18867 11.2417 8.22001 10.853C8.25134 10.4643 8.30467 10.0643 8.38001 9.653H4.34701C4.23834 9.99967 4.15334 10.3773 4.09201 10.786C4.03067 11.194 4.00001 11.5987 4.00001 12C4.00001 12.4013 4.03034 12.8063 4.09101 13.215C4.15167 13.6237 4.23667 14.0007 4.34601 14.346M9.38101 14.346H14.619C14.695 13.936 14.7483 13.5427 14.779 13.166C14.811 12.79 14.827 12.4013 14.827 12C14.827 11.5987 14.8113 11.21 14.78 10.834C14.7487 10.458 14.6953 10.0647 14.62 9.654H9.38001C9.30467 10.064 9.25134 10.4573 9.22001 10.834C9.18867 11.21 9.17301 11.5987 9.17301 12C9.17301 12.4013 9.18867 12.79 9.22001 13.166C9.25134 13.542 9.30567 13.9353 9.38101 14.346ZM15.62 14.346H19.654C19.7627 14 19.8477 13.623 19.909 13.215C19.9697 12.8063 20 12.4013 20 12C20 11.5987 19.9697 11.1937 19.909 10.785C19.8483 10.3763 19.7633 9.99933 19.654 9.654H15.619C15.695 10.064 15.7483 10.4637 15.779 10.853C15.811 11.2423 15.827 11.6247 15.827 12C15.827 12.3753 15.8113 12.7577 15.78 13.147C15.7487 13.5363 15.6953 13.9363 15.62 14.347M15.412 8.654H19.246C18.66 7.38467 17.8573 6.36467 16.838 5.594C15.8187 4.82333 14.6303 4.333 13.273 4.123C13.7397 4.737 14.1593 5.43933 14.532 6.23C14.9047 7.02 15.198 7.828 15.412 8.654ZM9.61901 8.654H14.381C14.117 7.71533 13.7913 6.86667 13.404 6.108C13.0167 5.34933 12.5487 4.644 12 3.992C11.4513 4.64333 10.9833 5.34867 10.596 6.108C10.2087 6.86733 9.88234 7.716 9.61901 8.654ZM4.75501 8.654H8.58901C8.80301 7.82867 9.09634 7.02067 9.46901 6.23C9.84167 5.43933 10.2613 4.737 10.728 4.123C9.35867 4.33367 8.16734 4.827 7.15401 5.603C6.14067 6.38033 5.34067 7.397 4.75401 8.653"/>
</mask>
<path d="M12 21C10.7613 21 9.59467 20.7633 8.50001 20.29C7.40534 19.816 6.45201 19.1727 5.64001 18.36C4.82801 17.5473 4.18467 16.594 3.71001 15.5C3.23534 14.406 2.99867 13.2393 3.00001 12C3.00001 10.7573 3.23667 9.58967 3.71001 8.497C4.18401 7.40367 4.82734 6.45133 5.64001 5.64C6.45267 4.82867 7.40601 4.18533 8.50001 3.71C9.59467 3.23667 10.7613 3 12 3C13.2427 3 14.4103 3.23667 15.503 3.71C16.5963 4.184 17.549 4.82733 18.361 5.64C19.173 6.45267 19.816 7.405 20.29 8.497C20.7633 9.59033 21 10.758 21 12C21 13.2387 20.7633 14.4053 20.29 15.5C19.816 16.5947 19.1727 17.548 18.36 18.36C17.5473 19.172 16.595 19.8153 15.503 20.29C14.411 20.7647 13.2433 21.0013 12 21ZM12 20.008C12.5867 19.254 13.0707 18.5137 13.452 17.787C13.8327 17.0603 14.1423 16.247 14.381 15.347H9.61901C9.88367 16.2977 10.1997 17.1363 10.567 17.863C10.935 18.5897 11.4127 19.3047 12 20.008ZM10.727 19.858C10.2603 19.308 9.83434 18.628 9.44901 17.818C9.06367 17.0087 8.77701 16.1847 8.58901 15.346H4.75401C5.32734 16.5893 6.13967 17.6093 7.19101 18.406C8.24301 19.202 9.42167 19.686 10.727 19.858ZM13.273 19.858C14.5783 19.686 15.757 19.202 16.809 18.406C17.8603 17.6093 18.6727 16.5893 19.246 15.346H15.412C15.1587 16.1973 14.8397 17.0277 14.455 17.837C14.0697 18.647 13.6757 19.3213 13.273 19.858ZM4.34601 14.347H8.38101C8.30501 13.9363 8.25167 13.5363 8.22101 13.147C8.18901 12.7583 8.17301 12.376 8.17301 12C8.17301 11.624 8.18867 11.2417 8.22001 10.853C8.25134 10.4643 8.30467 10.0643 8.38001 9.653H4.34701C4.23834 9.99967 4.15334 10.3773 4.09201 10.786C4.03067 11.194 4.00001 11.5987 4.00001 12C4.00001 12.4013 4.03034 12.8063 4.09101 13.215C4.15167 13.6237 4.23667 14.0007 4.34601 14.346M9.38101 14.346H14.619C14.695 13.936 14.7483 13.5427 14.779 13.166C14.811 12.79 14.827 12.4013 14.827 12C14.827 11.5987 14.8113 11.21 14.78 10.834C14.7487 10.458 14.6953 10.0647 14.62 9.654H9.38001C9.30467 10.064 9.25134 10.4573 9.22001 10.834C9.18867 11.21 9.17301 11.5987 9.17301 12C9.17301 12.4013 9.18867 12.79 9.22001 13.166C9.25134 13.542 9.30567 13.9353 9.38101 14.346ZM15.62 14.346H19.654C19.7627 14 19.8477 13.623 19.909 13.215C19.9697 12.8063 20 12.4013 20 12C20 11.5987 19.9697 11.1937 19.909 10.785C19.8483 10.3763 19.7633 9.99933 19.654 9.654H15.619C15.695 10.064 15.7483 10.4637 15.779 10.853C15.811 11.2423 15.827 11.6247 15.827 12C15.827 12.3753 15.8113 12.7577 15.78 13.147C15.7487 13.5363 15.6953 13.9363 15.62 14.347M15.412 8.654H19.246C18.66 7.38467 17.8573 6.36467 16.838 5.594C15.8187 4.82333 14.6303 4.333 13.273 4.123C13.7397 4.737 14.1593 5.43933 14.532 6.23C14.9047 7.02 15.198 7.828 15.412 8.654ZM9.61901 8.654H14.381C14.117 7.71533 13.7913 6.86667 13.404 6.108C13.0167 5.34933 12.5487 4.644 12 3.992C11.4513 4.64333 10.9833 5.34867 10.596 6.108C10.2087 6.86733 9.88234 7.716 9.61901 8.654ZM4.75501 8.654H8.58901C8.80301 7.82867 9.09634 7.02067 9.46901 6.23C9.84167 5.43933 10.2613 4.737 10.728 4.123C9.35867 4.33367 8.16734 4.827 7.15401 5.603C6.14067 6.38033 5.34067 7.397 4.75401 8.653" fill="black"/>
<path d="M12 21L12.0003 20.7H12V21ZM8.50001 20.29L8.3808 20.5653L8.38094 20.5654L8.50001 20.29ZM3.00001 12L3.30001 12.0003V12H3.00001ZM3.71001 8.497L3.43476 8.37767L3.43472 8.37775L3.71001 8.497ZM8.50001 3.71L8.38094 3.43464L8.38046 3.43485L8.50001 3.71ZM15.503 3.71L15.6223 3.43475L15.6223 3.43472L15.503 3.71ZM20.29 8.497L20.5653 8.37781L20.5652 8.37755L20.29 8.497ZM20.29 15.5L20.5653 15.6192L20.5654 15.6191L20.29 15.5ZM12 20.008L11.7697 20.2003L12.0083 20.4859L12.2368 20.1922L12 20.008ZM13.452 17.787L13.7176 17.9264L13.7178 17.9262L13.452 17.787ZM14.381 15.347L14.671 15.4239L14.7709 15.047H14.381V15.347ZM9.61901 15.347V15.047H9.22408L9.33 15.4275L9.61901 15.347ZM10.567 17.863L10.2993 17.9983L10.2994 17.9985L10.567 17.863ZM10.727 19.858L10.6878 20.1554L11.459 20.257L10.9558 19.6639L10.727 19.858ZM9.44901 17.818L9.71991 17.6891L9.71987 17.689L9.44901 17.818ZM8.58901 15.346L8.88174 15.2804L8.8292 15.046H8.58901V15.346ZM4.75401 15.346V15.046H4.28531L4.48158 15.4716L4.75401 15.346ZM7.19101 18.406L7.00982 18.6451L7.00999 18.6452L7.19101 18.406ZM13.273 19.858L13.033 19.678L12.6049 20.2486L13.3122 20.1554L13.273 19.858ZM16.809 18.406L16.99 18.6452L16.9902 18.6451L16.809 18.406ZM19.246 15.346L19.5184 15.4716L19.7147 15.046H19.246V15.346ZM15.412 15.346V15.046H15.1883L15.1245 15.2604L15.412 15.346ZM14.455 17.837L14.7259 17.9659L14.726 17.9658L14.455 17.837ZM8.38101 14.347V14.647H8.74162L8.676 14.2924L8.38101 14.347ZM8.22101 13.147L8.52008 13.1234L8.51999 13.1224L8.22101 13.147ZM8.38001 9.653L8.6751 9.70704L8.73994 9.353H8.38001V9.653ZM4.34701 9.653V9.353H4.12665L4.06074 9.56327L4.34701 9.653ZM4.09201 10.786L4.38867 10.8306L4.38868 10.8305L4.09201 10.786ZM9.38101 14.346L9.08593 14.4001L9.13103 14.646H9.38101V14.346ZM14.619 14.346V14.646H14.8685L14.914 14.4007L14.619 14.346ZM14.779 13.166L14.4801 13.1406L14.48 13.1417L14.779 13.166ZM14.62 9.654L14.9151 9.59987L14.87 9.354H14.62V9.654ZM9.38001 9.654V9.354H9.13011L9.08495 9.59979L9.38001 9.654ZM9.22001 10.834L9.51897 10.8589L9.51897 10.8589L9.22001 10.834ZM19.654 14.346V14.646H19.8742L19.9402 14.4359L19.654 14.346ZM19.909 13.215L20.2057 13.2596L20.2058 13.2591L19.909 13.215ZM19.654 9.654L19.94 9.56345L19.8737 9.354H19.654V9.654ZM15.619 9.654V9.354H15.2583L15.324 9.70868L15.619 9.654ZM15.779 10.853L15.4799 10.8766L15.48 10.8776L15.779 10.853ZM15.412 8.654L15.1216 8.72924L15.1798 8.954H15.412V8.654ZM19.246 8.654V8.954H19.7149L19.5184 8.52826L19.246 8.654ZM13.273 4.123L13.3189 3.82653L12.5845 3.71291L13.0342 4.30453L13.273 4.123ZM14.532 6.23L14.2606 6.3579L14.2607 6.35799L14.532 6.23ZM9.61901 8.654L9.33017 8.57291L9.22319 8.954H9.61901V8.654ZM14.381 8.654V8.954H14.777L14.6698 8.57278L14.381 8.654ZM12 3.992L12.2295 3.79884L12.0001 3.52621L11.7706 3.79872L12 3.992ZM8.58901 8.654V8.954H8.82114L8.8794 8.7293L8.58901 8.654ZM10.728 4.123L10.9668 4.30453L11.416 3.71363L10.6824 3.82649L10.728 4.123ZM7.15401 5.603L6.97161 5.36482L6.97141 5.36497L7.15401 5.603ZM12 20.7C10.8007 20.7 9.67469 20.4711 8.61907 20.0146L8.38094 20.5654C9.51465 21.0556 10.722 21.3 12 21.3V20.7ZM8.61921 20.0147C7.55791 19.5551 6.63646 18.9328 5.85222 18.148L5.42779 18.572C6.26755 19.4125 7.25277 20.0769 8.3808 20.5653L8.61921 20.0147ZM5.85222 18.148C5.06786 17.363 4.44547 16.4414 3.98522 15.3806L3.43479 15.6194C3.92387 16.7466 4.58815 17.7317 5.42779 18.572L5.85222 18.148ZM3.98522 15.3806C3.52759 14.3259 3.29871 13.2001 3.30001 12.0003L2.70001 11.9997C2.69863 13.2785 2.94309 14.4861 3.43479 15.6194L3.98522 15.3806ZM3.30001 12C3.30001 10.7965 3.52897 9.66963 3.98529 8.61625L3.43472 8.37775C2.94438 9.5097 2.70001 10.7181 2.70001 12H3.30001ZM3.98525 8.61633C4.44478 7.55637 5.06707 6.63591 5.85196 5.85231L5.42805 5.42769C4.5876 6.26676 3.92323 7.25096 3.43476 8.37767L3.98525 8.61633ZM5.85196 5.85231C6.63701 5.06855 7.55867 4.4461 8.61956 3.98515L8.38046 3.43485C7.25335 3.92457 6.26834 4.58878 5.42805 5.42769L5.85196 5.85231ZM8.61907 3.98536C9.67469 3.52891 10.8007 3.3 12 3.3V2.7C10.722 2.7 9.51465 2.94442 8.38094 3.43464L8.61907 3.98536ZM12 3.3C13.2035 3.3 14.3304 3.52896 15.3838 3.98528L15.6223 3.43472C14.4903 2.94437 13.2819 2.7 12 2.7V3.3ZM15.3837 3.98525C16.4437 4.44479 17.3645 5.0671 18.1488 5.85204L18.5732 5.42795C17.7335 4.58756 16.749 3.92321 15.6223 3.43475L15.3837 3.98525ZM18.1488 5.85204C18.9332 6.63711 19.5553 7.55772 20.0148 8.61645L20.5652 8.37755C20.0768 7.25228 19.4128 6.26822 18.5732 5.42795L18.1488 5.85204ZM20.0147 8.61619C20.4711 9.6703 20.7 10.7972 20.7 12H21.3C21.3 10.7188 21.0556 9.51037 20.5653 8.37781L20.0147 8.61619ZM20.7 12C20.7 13.1993 20.4711 14.3253 20.0146 15.3809L20.5654 15.6191C21.0556 14.4854 21.3 13.278 21.3 12H20.7ZM20.0147 15.3808C19.5552 16.4421 18.9328 17.3635 18.148 18.1478L18.5721 18.5722C19.4125 17.7325 20.0769 16.7472 20.5653 15.6192L20.0147 15.3808ZM18.148 18.1478C17.3629 18.9322 16.4422 19.5546 15.3834 20.0149L15.6226 20.5651C16.7478 20.076 17.7318 19.4118 18.5721 18.5722L18.148 18.1478ZM15.3834 20.0149C14.3309 20.4724 13.2043 20.7013 12.0003 20.7L11.9997 21.3C13.2824 21.3014 14.4911 21.057 15.6226 20.5651L15.3834 20.0149ZM12.2368 20.1922C12.8326 19.4264 13.3268 18.6712 13.7176 17.9264L13.1864 17.6476C12.8145 18.3562 12.3407 19.0816 11.7632 19.8238L12.2368 20.1922ZM13.7178 17.9262C14.1101 17.1773 14.4273 16.3427 14.671 15.4239L14.091 15.2701C13.8573 16.1513 13.5553 16.9434 13.1863 17.6478L13.7178 17.9262ZM14.381 15.047H9.61901V15.647H14.381V15.047ZM9.33 15.4275C9.59887 16.3932 9.92143 17.2509 10.2993 17.9983L10.8347 17.7277C10.4779 17.0218 10.1685 16.2021 9.90802 15.2665L9.33 15.4275ZM10.2994 17.9985C10.6788 18.7478 11.1696 19.4816 11.7697 20.2003L12.2303 19.8157C11.6557 19.1277 11.1912 18.4315 10.8346 17.7275L10.2994 17.9985ZM10.9558 19.6639C10.5094 19.1378 10.0967 18.4811 9.71991 17.6891L9.1781 17.9469C9.57201 18.7749 10.0113 19.4782 10.4983 20.0521L10.9558 19.6639ZM9.71987 17.689C9.34376 16.8991 9.06463 16.0963 8.88174 15.2804L8.29627 15.4116C8.48938 16.2731 8.78359 17.1183 9.17814 17.947L9.71987 17.689ZM8.58901 15.046H4.75401V15.646H8.58901V15.046ZM4.48158 15.4716C5.07473 16.7579 5.9177 17.8175 7.00982 18.6451L7.37219 18.1669C6.36165 17.4011 5.57995 16.4207 5.02644 15.2204L4.48158 15.4716ZM7.00999 18.6452C8.10334 19.4725 9.33086 19.9766 10.6878 20.1554L10.7662 19.5606C9.51249 19.3954 8.38267 18.9315 7.37202 18.1668L7.00999 18.6452ZM13.3122 20.1554C14.6692 19.9766 15.8967 19.4725 16.99 18.6452L16.628 18.1668C15.6173 18.9315 14.4875 19.3954 13.2338 19.5606L13.3122 20.1554ZM16.9902 18.6451C18.0823 17.8175 18.9253 16.7579 19.5184 15.4716L18.9736 15.2204C18.4201 16.4207 17.6384 17.4011 16.6278 18.1669L16.9902 18.6451ZM19.246 15.046H15.412V15.646H19.246V15.046ZM15.1245 15.2604C14.8756 16.0968 14.5621 16.9127 14.1841 17.7082L14.726 17.9658C15.1172 17.1426 15.4418 16.2978 15.6995 15.4316L15.1245 15.2604ZM14.1841 17.7081C13.8046 18.5058 13.4204 19.1617 13.033 19.678L13.513 20.038C13.9309 19.481 14.3347 18.7882 14.7259 17.9659L14.1841 17.7081ZM4.34601 14.647H8.38101V14.047H4.34601V14.647ZM8.676 14.2924C8.60177 13.8913 8.54987 13.5017 8.52008 13.1234L7.92193 13.1706C7.95347 13.571 8.00824 13.9814 8.08601 14.4016L8.676 14.2924ZM8.51999 13.1224C8.48864 12.7416 8.47301 12.3675 8.47301 12H7.87301C7.87301 12.3845 7.88937 12.7751 7.92202 13.1716L8.51999 13.1224ZM8.47301 12C8.47301 11.6323 8.48833 11.258 8.51904 10.8771L7.92098 10.8289C7.88902 11.2253 7.87301 11.6157 7.87301 12H8.47301ZM8.51904 10.8771C8.5495 10.4992 8.60145 10.1092 8.6751 9.70704L8.08491 9.59896C8.0079 10.0195 7.95317 10.4295 7.92098 10.8289L8.51904 10.8771ZM8.38001 9.353H4.34701V9.953H8.38001V9.353ZM4.06074 9.56327C3.94686 9.92656 3.85865 10.3195 3.79533 10.7415L4.38868 10.8305C4.44802 10.4351 4.52982 10.0728 4.63327 9.74273L4.06074 9.56327ZM3.79534 10.7414C3.73185 11.1638 3.70001 11.5833 3.70001 12H4.30001C4.30001 11.614 4.3295 11.2242 4.38867 10.8306L3.79534 10.7414ZM3.70001 12C3.70001 12.4165 3.73149 12.8362 3.79426 13.2591L4.38775 13.1709C4.32919 12.7764 4.30001 12.3862 4.30001 12H3.70001ZM3.79426 13.2591C3.85695 13.6813 3.94524 14.0741 4.06 14.4366L4.63201 14.2554C4.5281 13.9272 4.4464 13.566 4.38775 13.1709L3.79426 13.2591ZM9.38101 14.646H14.619V14.046H9.38101V14.646ZM14.914 14.4007C14.9917 13.9817 15.0464 13.5782 15.078 13.1903L14.48 13.1417C14.4502 13.5072 14.3984 13.8903 14.324 14.2913L14.914 14.4007ZM15.0779 13.1914C15.1107 12.8065 15.127 12.4093 15.127 12H14.527C14.527 12.3934 14.5113 12.7735 14.4801 13.1406L15.0779 13.1914ZM15.127 12C15.127 11.5909 15.111 11.1939 15.079 10.8091L14.481 10.8589C14.5116 11.2261 14.527 11.6065 14.527 12H15.127ZM15.079 10.8091C15.0467 10.4223 14.992 10.0192 14.9151 9.59987L14.3249 9.70813C14.3987 10.1101 14.4506 10.4937 14.481 10.8589L15.079 10.8091ZM14.62 9.354H9.38001V9.954H14.62V9.354ZM9.08495 9.59979C9.00801 10.0185 8.95327 10.4217 8.92104 10.8091L9.51897 10.8589C9.54941 10.493 9.60134 10.1095 9.67507 9.70821L9.08495 9.59979ZM8.92104 10.8091C8.88898 11.1939 8.87301 11.5909 8.87301 12H9.47301C9.47301 11.6065 9.48837 11.2261 9.51897 10.8589L8.92104 10.8091ZM8.87301 12C8.87301 12.4091 8.88898 12.8061 8.92104 13.1909L9.51897 13.1411C9.48837 12.7739 9.47301 12.3935 9.47301 12H8.87301ZM8.92104 13.1909C8.95331 13.5781 9.0091 13.9813 9.08593 14.4001L9.67608 14.2919C9.60224 13.8893 9.54937 13.5059 9.51897 13.1411L8.92104 13.1909ZM15.62 14.646H19.654V14.046H15.62V14.646ZM19.9402 14.4359C20.0541 14.0732 20.1423 13.6809 20.2057 13.2596L19.6123 13.1704C19.553 13.5651 19.4712 13.9268 19.3678 14.2561L19.9402 14.4359ZM20.2058 13.2591C20.2685 12.8362 20.3 12.4165 20.3 12H19.7C19.7 12.3862 19.6708 12.7764 19.6123 13.1709L20.2058 13.2591ZM20.3 12C20.3 11.5835 20.2685 11.1638 20.2058 10.7409L19.6123 10.8291C19.6708 11.2236 19.7 11.6138 19.7 12H20.3ZM20.2058 10.7409C20.1431 10.3187 20.0548 9.92591 19.94 9.56345L19.368 9.74455C19.4719 10.0728 19.5536 10.434 19.6123 10.8291L20.2058 10.7409ZM19.654 9.354H15.619V9.954H19.654V9.354ZM15.324 9.70868C15.3982 10.1091 15.4501 10.4983 15.4799 10.8766L16.0781 10.8294C16.0465 10.429 15.9918 10.0189 15.914 9.59932L15.324 9.70868ZM15.48 10.8776C15.5114 11.2591 15.527 11.6332 15.527 12H16.127C16.127 11.6161 16.1106 11.2256 16.078 10.8284L15.48 10.8776ZM15.527 12C15.527 12.367 15.5117 12.7413 15.481 13.1229L16.079 13.1711C16.111 12.774 16.127 12.3837 16.127 12H15.527ZM15.481 13.1229C15.4505 13.5015 15.3986 13.8915 15.3249 14.2929L15.9151 14.4011C15.9921 13.9812 16.0468 13.5711 16.079 13.1711L15.481 13.1229ZM15.412 8.954H19.246V8.354H15.412V8.954ZM19.5184 8.52826C18.9137 7.21843 18.0812 6.15786 17.0189 5.3547L16.6571 5.8333C17.6334 6.57148 18.4063 7.5509 18.9736 8.77975L19.5184 8.52826ZM17.0189 5.3547C15.9571 4.55187 14.7215 4.04353 13.3189 3.82653L13.2271 4.41947C14.5392 4.62247 15.6803 5.09479 16.6571 5.8333L17.0189 5.3547ZM13.0342 4.30453C13.4866 4.8998 13.8957 5.58373 14.2606 6.3579L14.8034 6.1021C14.4229 5.29493 13.9928 4.5742 13.5118 3.94147L13.0342 4.30453ZM14.2607 6.35799C14.6255 7.13144 14.9124 7.92181 15.1216 8.72924L15.7024 8.57876C15.4836 7.73419 15.1838 6.90856 14.8033 6.10201L14.2607 6.35799ZM9.61901 8.954H14.381V8.354H9.61901V8.954ZM14.6698 8.57278C14.4012 7.61772 14.0687 6.75021 13.6712 5.97159L13.1368 6.24441C13.514 6.98312 13.8328 7.81294 14.0922 8.73522L14.6698 8.57278ZM13.6712 5.97159C13.2735 5.19263 12.7929 4.46826 12.2295 3.79884L11.7705 4.18516C12.3045 4.81974 12.7598 5.50604 13.1368 6.24441L13.6712 5.97159ZM11.7706 3.79872C11.2072 4.46756 10.7265 5.192 10.3288 5.97168L10.8632 6.24432C11.2402 5.50533 11.6955 4.81911 12.2294 4.18528L11.7706 3.79872ZM10.3288 5.97168C9.93135 6.75079 9.59818 7.61827 9.33017 8.57291L9.90784 8.73509C10.1665 7.81373 10.486 6.98388 10.8632 6.24432L10.3288 5.97168ZM4.75501 8.954H8.58901V8.354H4.75501V8.954ZM8.8794 8.7293C9.0886 7.9225 9.37547 7.13209 9.74037 6.3579L9.19764 6.1021C8.8172 6.90924 8.51742 7.73483 8.29861 8.5787L8.8794 8.7293ZM9.74037 6.3579C10.1053 5.58373 10.5144 4.8998 10.9668 4.30453L10.4892 3.94147C10.0083 4.5742 9.57808 5.29493 9.19764 6.1021L9.74037 6.3579ZM10.6824 3.82649C9.26766 4.04414 8.02828 4.55563 6.97161 5.36482L7.3364 5.84118C8.30639 5.09837 9.44969 4.62319 10.7736 4.41951L10.6824 3.82649ZM6.97141 5.36497C5.91665 6.17408 5.08747 7.2302 4.4822 8.52604L5.02582 8.77996C5.59388 7.5638 6.3647 6.58658 7.3366 5.84103L6.97141 5.36497Z" fill="black" mask="url(#path-1-outside-1_138_879)"/>
</svg>
