<svg width="68" height="40" viewBox="0 0 100 80" fill="none" xmlns="http://www.w3.org/2000/svg">
<path d="M64.295 42.0002L53.1475 53.1459C52.2285 54.0649 51.7123 55.3113 51.7123 56.6109C51.7123 57.9105 52.2285 59.1569 53.1475 60.0759C54.0665 60.9949 55.3129 61.5112 56.6125 61.5112C57.9121 61.5112 59.1585 60.9949 60.0775 60.0759L74.69 45.4652C75.1451 45.0101 75.506 44.47 75.7523 43.8754C75.9986 43.2809 76.1254 42.6437 76.1254 42.0002C76.1254 41.3566 75.9986 40.7194 75.7523 40.1249C75.506 39.5304 75.1451 38.9902 74.69 38.5352L60.0775 23.9227C59.6225 23.4676 59.0823 23.1066 58.4878 22.8603C57.8933 22.6141 57.256 22.4873 56.6125 22.4873C55.969 22.4873 55.3318 22.6141 54.7372 22.8603C54.1427 23.1066 53.6025 23.4676 53.1475 23.9227L42 35.0684L30.8543 23.9227C30.3992 23.4676 29.8591 23.1066 29.2645 22.8603C28.67 22.6141 28.0328 22.4873 27.3893 22.4873C26.7457 22.4873 26.1085 22.6141 25.514 22.8603C24.9195 23.1066 24.3793 23.4676 23.9243 23.9227L9.31176 38.5352C8.8567 38.9902 8.49572 39.5304 8.24944 40.1249C8.00316 40.7194 7.8764 41.3566 7.8764 42.0002C7.8764 42.6437 8.00316 43.2809 8.24944 43.8754C8.49572 44.47 8.8567 45.0101 9.31176 45.4652L23.9243 60.0777C24.3793 60.5327 24.9195 60.8937 25.514 61.14C26.1085 61.3863 26.7457 61.513 27.3893 61.513C28.0328 61.513 28.67 61.3863 29.2645 61.14C29.8591 60.8937 30.3992 60.5327 30.8543 60.0777L63.5443 27.3877L59.1518 36.8569L64.295 42.0002Z" stroke="black" stroke-width="2" stroke-linecap="round" stroke-linejoin="round"/>
<path d="M42 35.0681L20.4575 56.6105L24.85 47.1431L19.705 41.9998L27.3875 34.3208L35.0682 41.9998" stroke="black" stroke-width="2" stroke-linecap="round" stroke-linejoin="round"/>
</svg>
