<svg width="65" height="65" viewBox="0 0 65 65" fill="none" xmlns="http://www.w3.org/2000/svg">
<mask id="path-1-outside-1_138_895" maskUnits="userSpaceOnUse" x="13.8958" y="35.5625" width="44" height="23" fill="black">
<rect fill="white" x="13.8958" y="35.5625" width="44" height="23"/>
<path fill-rule="evenodd" clip-rule="evenodd" d="M23.9119 39.2813C23.5002 39.3057 23.27 39.3653 23.1833 39.4032C22.3248 39.7959 19.5068 40.8183 17.6042 41.4995V51.114C18.5792 51.0693 19.676 51.0314 20.2922 51.0558C23.0303 51.1655 25.0981 51.8033 27.0305 52.4167L27.2011 52.4709C29.0672 53.064 30.8087 53.6179 33.0985 53.7912C33.8014 53.8454 34.4148 53.9063 34.989 53.9646C35.6712 54.0401 36.3553 54.0984 37.0405 54.1392C38.2051 54.1988 39.0989 54.1352 39.822 53.8698C40.7157 53.5421 43.9387 52.0349 47.1751 50.3923C48.6692 49.64 50.1465 48.8548 51.6059 48.0374C52.1406 47.7381 52.6667 47.4238 53.1835 47.0949C53.6264 46.8064 53.8403 46.6345 53.8985 46.5749C54.1396 46.3271 54.3116 45.6432 53.9961 45.0271C53.7767 44.5978 53.1646 43.9695 51.4448 44.2538C49.4542 44.5829 47.0871 45.5538 44.762 46.5072C43.634 46.9703 42.5114 47.4293 41.5188 47.7611C40.5654 48.0793 39.5417 48.3488 38.6642 48.296C37.3913 48.2188 35.1488 47.883 33.2881 47.5797C32.2206 47.4055 31.1544 47.2231 30.0896 47.0326L29.8824 46.996L29.8106 46.9825L30.0693 44.2958L37.3276 44.3838L37.3574 44.3811C37.4062 44.3771 37.5037 44.3649 37.6445 44.3283C37.9207 44.2565 38.3757 44.0886 38.9391 43.6851C39.1341 43.5456 39.3724 43.3032 39.5877 42.989C39.7638 42.7317 39.8951 42.4731 39.9723 42.2537C38.984 42.2147 38.0013 42.0855 37.0365 41.8678C36.5711 41.7658 36.1095 41.6474 35.6525 41.513L35.5902 41.494L26.6988 39.4993H26.696C26.5547 39.4743 26.413 39.4517 26.2708 39.4316C25.903 39.378 25.5336 39.336 25.1631 39.3057C24.7466 39.27 24.3281 39.2618 23.9105 39.2813M26.9669 38.1709L27.2147 36.8411L27.2391 36.8452L36.2957 38.8764L36.3513 38.8954L36.3675 38.9008L36.4298 38.9198L36.6844 38.9929C36.9078 39.0552 37.2301 39.1378 37.6133 39.2217C38.3906 39.3924 39.371 39.5495 40.2865 39.5495C41.1315 39.5495 42.0049 39.865 42.4721 40.7208C42.8729 41.4548 42.7795 42.2618 42.6292 42.8198C42.4423 43.5158 42.055 44.2471 41.5634 44.8686C42.2904 44.5895 43.0136 44.3006 43.7328 44.0019L43.8994 43.9342C46.0972 43.031 48.7026 41.9612 51.0006 41.5821C53.6277 41.1474 55.5384 42.1007 56.4051 43.7921C57.177 45.2979 56.9982 47.2736 55.8364 48.4639C55.5452 48.7632 55.1011 49.0774 54.6555 49.3658C54.0939 49.725 53.5222 50.0682 52.9412 50.395C51.4451 51.2327 49.9308 52.0373 48.3993 52.8081C45.1886 54.4372 41.8221 56.0215 40.7523 56.4129C39.5119 56.8665 38.1794 56.9099 36.8997 56.8435C36.1273 56.7955 35.3562 56.73 34.5868 56.6472C34.0231 56.5889 33.4589 56.537 32.8941 56.4914C30.2832 56.2937 28.2791 55.6559 26.4347 55.0696L26.2099 54.9978C24.3046 54.3925 22.532 53.8562 20.1825 53.7614C19.3835 53.7303 17.397 53.8332 16.3272 53.8955L14.8958 53.9795V39.5887L15.7964 39.2691C17.6313 38.6164 21.1887 37.3367 22.0594 36.94C22.6038 36.6922 23.2334 36.6082 23.7548 36.5771C24.2942 36.5507 24.8348 36.5602 25.373 36.6055C25.9753 36.6527 26.575 36.7286 27.17 36.833L27.2025 36.8384L27.2106 36.8398H27.216L26.9669 38.1709Z"/>
</mask>
<path fill-rule="evenodd" clip-rule="evenodd" d="M23.9119 39.2813C23.5002 39.3057 23.27 39.3653 23.1833 39.4032C22.3248 39.7959 19.5068 40.8183 17.6042 41.4995V51.114C18.5792 51.0693 19.676 51.0314 20.2922 51.0558C23.0303 51.1655 25.0981 51.8033 27.0305 52.4167L27.2011 52.4709C29.0672 53.064 30.8087 53.6179 33.0985 53.7912C33.8014 53.8454 34.4148 53.9063 34.989 53.9646C35.6712 54.0401 36.3553 54.0984 37.0405 54.1392C38.2051 54.1988 39.0989 54.1352 39.822 53.8698C40.7157 53.5421 43.9387 52.0349 47.1751 50.3923C48.6692 49.64 50.1465 48.8548 51.6059 48.0374C52.1406 47.7381 52.6667 47.4238 53.1835 47.0949C53.6264 46.8064 53.8403 46.6345 53.8985 46.5749C54.1396 46.3271 54.3116 45.6432 53.9961 45.0271C53.7767 44.5978 53.1646 43.9695 51.4448 44.2538C49.4542 44.5829 47.0871 45.5538 44.762 46.5072C43.634 46.9703 42.5114 47.4293 41.5188 47.7611C40.5654 48.0793 39.5417 48.3488 38.6642 48.296C37.3913 48.2188 35.1488 47.883 33.2881 47.5797C32.2206 47.4055 31.1544 47.2231 30.0896 47.0326L29.8824 46.996L29.8106 46.9825L30.0693 44.2958L37.3276 44.3838L37.3574 44.3811C37.4062 44.3771 37.5037 44.3649 37.6445 44.3283C37.9207 44.2565 38.3757 44.0886 38.9391 43.6851C39.1341 43.5456 39.3724 43.3032 39.5877 42.989C39.7638 42.7317 39.8951 42.4731 39.9723 42.2537C38.984 42.2147 38.0013 42.0855 37.0365 41.8678C36.5711 41.7658 36.1095 41.6474 35.6525 41.513L35.5902 41.494L26.6988 39.4993H26.696C26.5547 39.4743 26.413 39.4517 26.2708 39.4316C25.903 39.378 25.5336 39.336 25.1631 39.3057C24.7466 39.27 24.3281 39.2618 23.9105 39.2813M26.9669 38.1709L27.2147 36.8411L27.2391 36.8452L36.2957 38.8764L36.3513 38.8954L36.3675 38.9008L36.4298 38.9198L36.6844 38.9929C36.9078 39.0552 37.2301 39.1378 37.6133 39.2217C38.3906 39.3924 39.371 39.5495 40.2865 39.5495C41.1315 39.5495 42.0049 39.865 42.4721 40.7208C42.8729 41.4548 42.7795 42.2618 42.6292 42.8198C42.4423 43.5158 42.055 44.2471 41.5634 44.8686C42.2904 44.5895 43.0136 44.3006 43.7328 44.0019L43.8994 43.9342C46.0972 43.031 48.7026 41.9612 51.0006 41.5821C53.6277 41.1474 55.5384 42.1007 56.4051 43.7921C57.177 45.2979 56.9982 47.2736 55.8364 48.4639C55.5452 48.7632 55.1011 49.0774 54.6555 49.3658C54.0939 49.725 53.5222 50.0682 52.9412 50.395C51.4451 51.2327 49.9308 52.0373 48.3993 52.8081C45.1886 54.4372 41.8221 56.0215 40.7523 56.4129C39.5119 56.8665 38.1794 56.9099 36.8997 56.8435C36.1273 56.7955 35.3562 56.73 34.5868 56.6472C34.0231 56.5889 33.4589 56.537 32.8941 56.4914C30.2832 56.2937 28.2791 55.6559 26.4347 55.0696L26.2099 54.9978C24.3046 54.3925 22.532 53.8562 20.1825 53.7614C19.3835 53.7303 17.397 53.8332 16.3272 53.8955L14.8958 53.9795V39.5887L15.7964 39.2691C17.6313 38.6164 21.1887 37.3367 22.0594 36.94C22.6038 36.6922 23.2334 36.6082 23.7548 36.5771C24.2942 36.5507 24.8348 36.5602 25.373 36.6055C25.9753 36.6527 26.575 36.7286 27.17 36.833L27.2025 36.8384L27.2106 36.8398H27.216L26.9669 38.1709Z" fill="black"/>
<path d="M30.3026 47.072L30.545 45.7395L29.5611 45.5605L29.3187 46.893L30.3026 47.072ZM23.1833 39.4032L22.7825 38.487L22.7749 38.4904L22.7674 38.4938L23.1833 39.4032ZM17.6042 41.4995L17.2671 40.558L16.6042 40.7953V41.4995H17.6042ZM17.6042 51.114H16.6042V52.1609L17.65 52.113L17.6042 51.114ZM20.2922 51.0558L20.3322 50.0566L20.3317 50.0566L20.2922 51.0558ZM27.0305 52.4167L27.3331 51.4636L27.3331 51.4636L27.0305 52.4167ZM27.2011 52.4709L27.5041 51.5179L27.5037 51.5178L27.2011 52.4709ZM33.0985 53.7912L33.1754 52.7942L33.174 52.7941L33.0985 53.7912ZM34.989 53.9646L35.099 52.9706L35.0899 52.9697L34.989 53.9646ZM37.0405 54.1392L36.981 55.1375L36.9894 55.1379L37.0405 54.1392ZM39.822 53.8698L39.4777 52.9309L39.4774 52.931L39.822 53.8698ZM47.1751 50.3923L46.7254 49.4991L46.7225 49.5005L47.1751 50.3923ZM51.6059 48.0374L51.1176 47.1647L51.1173 47.1649L51.6059 48.0374ZM53.1835 47.0949L53.7205 47.9385L53.7293 47.9328L53.1835 47.0949ZM53.8985 46.5749L54.6137 47.2738L54.6154 47.2721L53.8985 46.5749ZM53.9961 45.0271L53.1056 45.4821L53.106 45.4829L53.9961 45.0271ZM51.4448 44.2538L51.6079 45.2404L51.6079 45.2404L51.4448 44.2538ZM44.762 46.5072L44.3826 45.5819L44.3822 45.5821L44.762 46.5072ZM41.5188 47.7611L41.8354 48.7097L41.8358 48.7095L41.5188 47.7611ZM38.6642 48.296L38.6036 49.2942L38.6041 49.2942L38.6642 48.296ZM33.2881 47.5797L33.1271 48.5666L33.1272 48.5666L33.2881 47.5797ZM30.0896 47.0326L30.2657 46.0482L30.2634 46.0478L30.0896 47.0326ZM29.8824 46.996L29.6969 47.9787L29.7086 47.9808L29.8824 46.996ZM29.8106 46.9825L28.8152 46.8866L28.7277 47.7958L29.6252 47.9651L29.8106 46.9825ZM30.0693 44.2958L30.0814 43.2959L29.162 43.2847L29.0739 44.2L30.0693 44.2958ZM37.3276 44.3838L37.3155 45.3838L37.367 45.3844L37.4183 45.3797L37.3276 44.3838ZM37.3574 44.3811L37.2744 43.3845L37.2667 43.3852L37.3574 44.3811ZM37.6445 44.3283L37.8958 45.2962L37.8959 45.2962L37.6445 44.3283ZM38.9391 43.6851L38.3573 42.8717L38.3567 42.8721L38.9391 43.6851ZM39.5877 42.989L40.4126 43.5544L40.413 43.5537L39.5877 42.989ZM39.9723 42.2537L40.9156 42.5856L41.3652 41.3079L40.0118 41.2545L39.9723 42.2537ZM37.0365 41.8678L37.2566 40.8923L37.2506 40.891L37.0365 41.8678ZM35.6525 41.513L35.3613 42.4697L35.3703 42.4723L35.6525 41.513ZM35.5902 41.494L35.8814 40.5374L35.8456 40.5265L35.8091 40.5183L35.5902 41.494ZM26.6988 39.4993L26.9177 38.5236L26.8095 38.4993H26.6988V39.4993ZM26.696 39.4993L26.5214 40.484L26.608 40.4993H26.696V39.4993ZM26.2708 39.4316L26.1265 40.4212L26.1311 40.4218L26.2708 39.4316ZM25.1631 39.3057L25.0776 40.302L25.0817 40.3024L25.1631 39.3057ZM26.9669 38.1709L25.9838 37.9877L27.9498 38.3549L26.9669 38.1709ZM27.2147 36.8411L27.3791 35.8547L26.4114 35.6934L26.2316 36.6579L27.2147 36.8411ZM27.2391 36.8452L27.4579 35.8694L27.4308 35.8633L27.4035 35.8588L27.2391 36.8452ZM36.2957 38.8764L36.6189 37.9301L36.5675 37.9125L36.5146 37.9007L36.2957 38.8764ZM36.3513 38.8954L36.0281 39.8418L36.0351 39.8441L36.3513 38.8954ZM36.3675 38.9008L36.0513 39.8495L36.0638 39.8537L36.0763 39.8575L36.3675 38.9008ZM36.4298 38.9198L36.1386 39.8764L36.1462 39.8787L36.1537 39.8809L36.4298 38.9198ZM36.6844 38.9929L36.4083 39.9541L36.4158 39.9562L36.6844 38.9929ZM37.6133 39.2217L37.8277 38.245L37.8273 38.2449L37.6133 39.2217ZM42.4721 40.7208L41.5944 41.1999L41.5944 41.2001L42.4721 40.7208ZM42.6292 42.8198L41.6636 42.5596L41.6634 42.5605L42.6292 42.8198ZM41.5634 44.8686L40.7791 44.2483L38.516 47.1099L41.9219 45.8022L41.5634 44.8686ZM43.7328 44.0019L43.3562 43.0755L43.3493 43.0784L43.7328 44.0019ZM43.8994 43.9342L44.276 44.8606L44.2795 44.8592L43.8994 43.9342ZM51.0006 41.5821L51.1634 42.5687L51.1639 42.5686L51.0006 41.5821ZM56.4051 43.7921L55.5151 44.2481L55.5152 44.2482L56.4051 43.7921ZM55.8364 48.4639L55.1208 47.7654L55.1196 47.7666L55.8364 48.4639ZM54.6555 49.3658L55.1944 50.2082L55.199 50.2052L54.6555 49.3658ZM52.9412 50.395L53.4297 51.2675L53.4313 51.2666L52.9412 50.395ZM48.3993 52.8081L47.9497 51.9149L47.9468 51.9163L48.3993 52.8081ZM40.7523 56.4129L41.0958 57.3521L41.0959 57.352L40.7523 56.4129ZM36.8997 56.8435L36.8376 57.8416L36.8479 57.8422L36.8997 56.8435ZM34.5868 56.6472L34.6938 55.6529L34.6895 55.6525L34.5868 56.6472ZM32.8941 56.4914L32.9745 55.4947L32.9696 55.4943L32.8941 56.4914ZM26.4347 55.0696L26.1305 56.0222L26.1317 56.0226L26.4347 55.0696ZM26.2099 54.9978L26.5141 54.0452L26.5127 54.0447L26.2099 54.9978ZM20.1825 53.7614L20.2228 52.7622L20.2215 52.7622L20.1825 53.7614ZM16.3272 53.8955L16.2691 52.8972L16.2686 52.8972L16.3272 53.8955ZM14.8958 53.9795H13.8958V55.0398L14.9544 54.9777L14.8958 53.9795ZM14.8958 39.5887L14.5614 38.6463L13.8958 38.8825V39.5887H14.8958ZM15.7964 39.2691L16.1308 40.2116L16.1315 40.2113L15.7964 39.2691ZM22.0594 36.94L21.6451 36.0298L21.6447 36.03L22.0594 36.94ZM23.7548 36.5771L23.7059 35.5782L23.6952 35.5788L23.7548 36.5771ZM25.373 36.6055L25.2891 37.602L25.295 37.6024L25.373 36.6055ZM27.17 36.833L26.9971 37.818L27.0056 37.8194L27.17 36.833ZM27.2025 36.8384L27.0381 37.8248L27.0382 37.8248L27.2025 36.8384ZM27.2106 36.8398L27.0463 37.8262L27.1279 37.8398H27.2106V36.8398ZM27.216 36.8398L28.199 37.0238L28.4206 35.8398H27.216V36.8398ZM23.8528 38.2831C23.3981 38.31 23.0295 38.379 22.7825 38.487L23.5842 40.3194C23.5508 40.3339 23.535 40.3375 23.5464 40.3343C23.5547 40.332 23.5758 40.3265 23.6117 40.3197C23.6836 40.3061 23.8011 40.2896 23.971 40.2796L23.8528 38.2831ZM22.7674 38.4938C21.9585 38.8638 19.1956 39.8675 17.2671 40.558L17.9412 42.4409C19.8179 41.7691 22.6911 40.728 23.5993 40.3126L22.7674 38.4938ZM16.6042 41.4995V51.114H18.6042V41.4995H16.6042ZM17.65 52.113C18.634 52.0679 19.6869 52.0326 20.2527 52.055L20.3317 50.0566C19.6652 50.0302 18.5244 50.0708 17.5584 50.1151L17.65 52.113ZM20.2522 52.055C22.8469 52.1589 24.8055 52.7596 26.728 53.3699L27.3331 51.4636C25.3907 50.847 23.2138 50.172 20.3322 50.0566L20.2522 52.055ZM26.7279 53.3699L26.8986 53.424L27.5037 51.5178L27.3331 51.4636L26.7279 53.3699ZM26.8982 53.4239C28.7624 54.0165 30.6042 54.6053 33.0231 54.7884L33.174 52.7941C31.0131 52.6305 29.372 52.1116 27.5041 51.5179L26.8982 53.4239ZM33.0217 54.7883C33.7118 54.8414 34.3152 54.9014 34.8881 54.9595L35.0899 52.9697C34.5144 52.9113 33.8909 52.8493 33.1754 52.7942L33.0217 54.7883ZM34.8789 54.9585C35.578 55.0359 36.2789 55.0956 36.981 55.1375L37.1001 53.141C36.4317 53.1011 35.7645 53.0443 35.099 52.9706L34.8789 54.9585ZM36.9894 55.1379C38.1952 55.1996 39.2516 55.1443 40.1665 54.8085L39.4774 52.931C38.9461 53.126 38.215 53.198 37.0916 53.1405L36.9894 55.1379ZM40.1662 54.8086C41.125 54.4571 44.4007 52.9218 47.6277 51.284L46.7225 49.5005C43.4766 51.1479 40.3065 52.627 39.4777 52.9309L40.1662 54.8086ZM47.6248 51.2854C49.1321 50.5265 50.6223 49.7345 52.0946 48.9098L51.1173 47.1649C49.6707 47.9752 48.2063 48.7534 46.7254 49.4991L47.6248 51.2854ZM52.0943 48.91C52.6454 48.6015 53.1877 48.2776 53.7205 47.9385L52.6466 46.2512C52.1456 46.5701 51.6357 46.8747 51.1176 47.1647L52.0943 48.91ZM53.7293 47.9328C54.1696 47.646 54.4697 47.4212 54.6137 47.2738L53.1834 45.8759C53.2056 45.8532 53.2129 45.8489 53.1882 45.8693C53.1685 45.8855 53.1359 45.9113 53.0879 45.9471C52.992 46.0185 52.8455 46.1216 52.6377 46.257L53.7293 47.9328ZM54.6154 47.2721C54.936 46.9425 55.0984 46.4767 55.1488 46.059C55.203 45.6101 55.1467 45.0802 54.8861 44.5713L53.106 45.4829C53.1609 45.5901 53.1764 45.7102 53.1632 45.8192C53.1567 45.8731 53.1445 45.9119 53.1363 45.9316C53.1254 45.9579 53.1312 45.9296 53.1817 45.8776L54.6154 47.2721ZM54.8865 44.572C54.6902 44.1878 54.3262 43.7412 53.6882 43.4585C53.0646 43.1823 52.272 43.1035 51.2817 43.2672L51.6079 45.2404C52.3373 45.1198 52.7107 45.213 52.878 45.2871C53.0308 45.3548 53.0826 45.4371 53.1056 45.4821L54.8865 44.572ZM51.2817 43.2672C49.1552 43.6187 46.6719 44.6433 44.3826 45.5819L45.1414 47.4324C47.5023 46.4644 49.7532 45.547 51.6079 45.2404L51.2817 43.2672ZM44.3822 45.5821C43.247 46.0482 42.1566 46.4935 41.2018 46.8127L41.8358 48.7095C42.8661 48.3652 44.021 47.8924 45.1418 47.4322L44.3822 45.5821ZM41.2021 46.8126C40.2575 47.1279 39.3936 47.3381 38.7242 47.2978L38.6041 49.2942C39.6898 49.3596 40.8733 49.0308 41.8354 48.7097L41.2021 46.8126ZM38.7247 47.2978C37.5112 47.2243 35.3198 46.8977 33.449 46.5927L33.1272 48.5666C34.9777 48.8683 37.2713 49.2134 38.6036 49.2942L38.7247 47.2978ZM33.4491 46.5927C32.3866 46.4194 31.3255 46.2379 30.2657 46.0482L29.9134 48.0169C30.9832 48.2084 32.0545 48.3916 33.1271 48.5666L33.4491 46.5927ZM30.2634 46.0478L30.0562 46.0112L29.7086 47.9808L29.9158 48.0174L30.2634 46.0478ZM30.0678 46.0134L29.9961 45.9998L29.6252 47.9651L29.697 47.9787L30.0678 46.0134ZM30.806 47.0783L31.0647 44.3916L29.0739 44.2L28.8152 46.8866L30.806 47.0783ZM30.0571 45.2957L37.3155 45.3838L37.3397 43.3839L30.0814 43.2959L30.0571 45.2957ZM37.4183 45.3797L37.4481 45.377L37.2667 43.3852L37.2369 43.3879L37.4183 45.3797ZM37.4404 45.3777C37.5444 45.369 37.6983 45.3475 37.8958 45.2962L37.3932 43.3604C37.309 43.3822 37.2679 43.3851 37.2744 43.3846L37.4404 45.3777ZM37.8959 45.2962C38.2861 45.1948 38.8541 44.976 39.5214 44.498L38.3567 42.8721C37.8973 43.2012 37.5554 43.3183 37.393 43.3604L37.8959 45.2962ZM39.5208 44.4984C39.8297 44.2775 40.1459 43.9434 40.4126 43.5544L38.7628 42.4237C38.5989 42.663 38.4385 42.8137 38.3573 42.8717L39.5208 44.4984ZM40.413 43.5537C40.6308 43.2354 40.8053 42.8992 40.9156 42.5856L39.029 41.9218C38.9849 42.047 38.8967 42.2281 38.7624 42.4244L40.413 43.5537ZM40.0118 41.2545C39.0843 41.2179 38.162 41.0966 37.2566 40.8923L36.8163 42.8433C37.8405 43.0744 38.8837 43.2115 39.9328 43.2529L40.0118 41.2545ZM37.2506 40.891C36.8081 40.794 36.3693 40.6815 35.9347 40.5536L35.3703 42.4723C35.8498 42.6134 36.3341 42.7376 36.8224 42.8446L37.2506 40.891ZM35.9437 40.5563L35.8814 40.5374L35.299 42.4507L35.3613 42.4697L35.9437 40.5563ZM35.8091 40.5183L26.9177 38.5236L26.4799 40.4751L35.3713 42.4698L35.8091 40.5183ZM26.6988 38.4993H26.696V40.4993H26.6988V38.4993ZM26.8707 38.5147C26.7178 38.4876 26.5644 38.4632 26.4106 38.4415L26.1311 40.4218C26.2615 40.4402 26.3916 40.461 26.5214 40.484L26.8707 38.5147ZM26.4152 38.4421C26.0265 38.3854 25.6361 38.341 25.2446 38.309L25.0817 40.3024C25.4311 40.3309 25.7795 40.3705 26.1265 40.4212L26.4152 38.4421ZM25.2486 38.3094C24.7881 38.2699 24.3255 38.2609 23.8639 38.2824L23.9572 40.2802C24.3307 40.2628 24.705 40.2701 25.0776 40.302L25.2486 38.3094ZM27.95 38.3541L28.1978 37.0243L26.2316 36.6579L25.9838 37.9877L27.95 38.3541ZM27.0503 37.8275L27.0747 37.8316L27.4035 35.8588L27.3791 35.8547L27.0503 37.8275ZM27.0202 37.8209L36.0769 39.8522L36.5146 37.9007L27.4579 35.8694L27.0202 37.8209ZM35.9726 39.8228L36.0281 39.8417L36.6744 37.949L36.6189 37.9301L35.9726 39.8228ZM36.0351 39.8441L36.0513 39.8495L36.6837 37.9521L36.6674 37.9467L36.0351 39.8441ZM36.0763 39.8575L36.1386 39.8764L36.721 37.9631L36.6587 37.9441L36.0763 39.8575ZM36.1537 39.8809L36.4083 39.954L36.9605 38.0318L36.7059 37.9586L36.1537 39.8809ZM36.4158 39.9562C36.6571 40.0234 36.9976 40.1106 37.3993 40.1986L37.8273 38.2449C37.4627 38.165 37.1586 38.0869 36.9529 38.0296L36.4158 39.9562ZM37.3989 40.1985C38.2119 40.377 39.2705 40.5495 40.2865 40.5495V38.5495C39.4716 38.5495 38.5693 38.4078 37.8277 38.245L37.3989 40.1985ZM40.2865 40.5495C40.9034 40.5495 41.3598 40.7703 41.5944 41.1999L43.3498 40.2417C42.65 38.9597 41.3595 38.5495 40.2865 38.5495V40.5495ZM41.5944 41.2001C41.8135 41.6013 41.7873 42.1007 41.6636 42.5596L43.5947 43.0799C43.7717 42.423 43.9323 41.3082 43.3497 40.2415L41.5944 41.2001ZM41.6634 42.5605C41.5172 43.105 41.2002 43.7159 40.7791 44.2483L42.3478 45.4889C42.9098 44.7782 43.3674 43.9266 43.595 43.0791L41.6634 42.5605ZM41.9219 45.8022C42.6573 45.5198 43.3888 45.2276 44.1163 44.9255L43.3493 43.0784C42.6384 43.3736 41.9236 43.6592 41.205 43.9351L41.9219 45.8022ZM44.1094 44.9283L44.276 44.8606L43.5228 43.0079L43.3562 43.0756L44.1094 44.9283ZM44.2795 44.8592C46.5057 43.9443 48.9997 42.9257 51.1634 42.5687L50.8378 40.5954C48.4055 40.9967 45.6887 42.1178 43.5193 43.0093L44.2795 44.8592ZM51.1639 42.5686C53.4609 42.1886 54.8891 43.0263 55.5151 44.2481L57.2951 43.336C56.1878 41.1752 53.7945 40.1062 50.8374 40.5955L51.1639 42.5686ZM55.5152 44.2482C56.1202 45.4284 55.9402 46.9259 55.1208 47.7654L56.552 49.1624C58.0562 47.6214 58.2338 45.1673 57.295 43.3359L55.5152 44.2482ZM55.1196 47.7666C54.9141 47.9779 54.5546 48.2399 54.1121 48.5264L55.199 50.2052C55.6475 49.9148 56.1764 49.5485 56.5531 49.1612L55.1196 47.7666ZM54.1167 48.5234C53.571 48.8724 53.0156 49.2059 52.451 49.5233L53.4313 51.2666C54.0289 50.9306 54.6168 50.5776 55.1944 50.2082L54.1167 48.5234ZM52.4526 49.5225C50.9694 50.353 49.4681 51.1506 47.9497 51.9149L48.8489 53.7013C50.3935 52.9239 51.9209 52.1124 53.4297 51.2675L52.4526 49.5225ZM47.9468 51.9163C44.7263 53.5503 41.4131 55.1064 40.4087 55.4738L41.0959 57.352C42.2311 56.9367 45.6508 55.324 48.8517 53.6999L47.9468 51.9163ZM40.4088 55.4737C39.3586 55.8578 38.1872 55.9089 36.9515 55.8449L36.8479 57.8422C38.1716 57.9108 39.6652 57.8752 41.0958 57.3521L40.4088 55.4737ZM36.9618 55.8454C36.2044 55.7983 35.4483 55.7341 34.6938 55.6529L34.4797 57.6414C35.2641 57.7259 36.0502 57.7926 36.8376 57.8416L36.9618 55.8454ZM34.6895 55.6525C34.1185 55.5935 33.5468 55.5409 32.9745 55.4947L32.8136 57.4882C33.371 57.5332 33.9278 57.5844 34.484 57.6419L34.6895 55.6525ZM32.9696 55.4943C30.4863 55.3062 28.5804 54.7024 26.7377 54.1166L26.1317 56.0226C27.9777 56.6094 30.0802 57.2812 32.8186 57.4886L32.9696 55.4943ZM26.7388 54.1169L26.5141 54.0452L25.9057 55.9504L26.1305 56.0222L26.7388 54.1169ZM26.5127 54.0447C24.5974 53.4363 22.7157 52.8628 20.2228 52.7622L20.1422 54.7606C22.3483 54.8496 24.0117 55.3487 25.9071 55.9508L26.5127 54.0447ZM20.2215 52.7622C19.362 52.7287 17.3168 52.8362 16.2691 52.8972L16.3853 54.8938C17.4771 54.8302 19.4051 54.7319 20.1436 54.7607L20.2215 52.7622ZM16.2686 52.8972L14.8373 52.9812L14.9544 54.9777L16.3857 54.8938L16.2686 52.8972ZM15.8958 53.9795V39.5887H13.8958V53.9795H15.8958ZM15.2303 40.5311L16.1308 40.2116L15.4619 38.3267L14.5614 38.6463L15.2303 40.5311ZM16.1315 40.2113C17.937 39.569 21.5528 38.2698 22.474 37.8499L21.6447 36.03C20.8245 36.4037 17.3255 37.6638 15.4612 38.327L16.1315 40.2113ZM22.4737 37.8501C22.8497 37.6789 23.3328 37.604 23.8144 37.5753L23.6952 35.5788C23.1341 35.6124 22.3578 35.7054 21.6451 36.0298L22.4737 37.8501ZM23.8037 37.5759C24.2988 37.5516 24.7951 37.5604 25.2891 37.602L25.4569 35.609C24.8746 35.56 24.2896 35.5497 23.7059 35.5782L23.8037 37.5759ZM25.295 37.6024C25.8655 37.6471 26.4335 37.719 26.9972 37.8179L27.3429 35.848C26.7164 35.7381 26.0851 35.6582 25.4511 35.6085L25.295 37.6024ZM27.0056 37.8194L27.0381 37.8248L27.3669 35.852L27.3344 35.8466L27.0056 37.8194ZM27.0382 37.8248L27.0463 37.8262L27.3749 35.8534L27.3668 35.852L27.0382 37.8248ZM27.2106 37.8398H27.216V35.8398H27.2106V37.8398ZM26.2331 36.6558L25.9839 37.9869L27.9498 38.3549L28.199 37.0238L26.2331 36.6558Z" fill="white" mask="url(#path-1-outside-1_138_895)"/>
<mask id="path-3-outside-2_138_895" maskUnits="userSpaceOnUse" x="7.125" y="7.25195" width="45" height="51" fill="black">
<rect fill="white" x="7.125" y="7.25195" width="45" height="51"/>
<path fill-rule="evenodd" clip-rule="evenodd" d="M8.125 39.2707C8.125 38.5524 8.41034 37.8635 8.91825 37.3556C9.42616 36.8477 10.115 36.5623 10.8333 36.5623H14.8958C15.6141 36.5623 16.303 36.8477 16.8109 37.3556C17.3188 37.8635 17.6042 38.5524 17.6042 39.2707V54.1611C17.6042 54.8794 17.3188 55.5683 16.8109 56.0762C16.303 56.5841 15.6141 56.8694 14.8958 56.8694H10.8333C10.115 56.8694 9.42616 56.5841 8.91825 56.0762C8.41034 55.5683 8.125 54.8794 8.125 54.1611V39.2707ZM10.8333 39.2707V54.1611H14.8958V39.272L10.8333 39.2707ZM26.1341 25.836L26.1611 25.8089C26.3242 25.645 26.4154 25.4229 26.4148 25.1917C26.4142 24.9605 26.3217 24.739 26.1578 24.5759C25.9938 24.4129 25.7718 24.3216 25.5406 24.3223C25.3094 24.3229 25.0878 24.4154 24.9248 24.5793L22.2706 27.2511C22.0187 27.5046 21.719 27.7056 21.389 27.8428C21.059 27.9799 20.7051 28.0503 20.3477 28.0501H16.8472C16.6163 28.0501 16.3948 28.1418 16.2315 28.3051C16.0682 28.4684 15.9765 28.6899 15.9765 28.9208C15.9765 29.1517 16.0682 29.3732 16.2315 29.5365C16.3948 29.6998 16.6163 29.7915 16.8472 29.7915H20.5847C21.1298 29.7915 21.6693 29.6818 22.1711 29.4689C22.6729 29.2561 23.1268 28.9444 23.5056 28.5525L26.1341 25.836ZM20.3491 25.3404H16.8458C15.8964 25.3404 14.9859 25.7175 14.3146 26.3888C13.6432 27.0602 13.2661 27.9707 13.2661 28.9201C13.2661 29.8695 13.6432 30.78 14.3146 31.4514C14.9859 32.1227 15.8964 32.4998 16.8458 32.4998H20.5833C21.4917 32.5 22.3909 32.3174 23.2272 31.9628C24.0636 31.6083 24.82 31.0891 25.4516 30.4361L28.0786 27.7183C28.7481 27.0452 29.1228 26.1338 29.1202 25.1845C29.1177 24.2353 28.7381 23.3259 28.0651 22.6564C27.3921 21.987 26.4806 21.6123 25.5314 21.6148C24.5821 21.6174 23.6727 21.9969 23.0032 22.67L20.3491 25.3404ZM44.3354 17.6013C44.7879 17.6141 45.2383 17.536 45.6601 17.3717C46.0818 17.2074 46.4664 16.9602 46.7909 16.6447C47.1155 16.3292 47.3735 15.9518 47.5496 15.5349C47.7258 15.1179 47.8166 14.6699 47.8166 14.2172C47.8166 13.7646 47.7258 13.3166 47.5496 12.8996C47.3735 12.4827 47.1155 12.1053 46.7909 11.7898C46.4664 11.4743 46.0818 11.2271 45.6601 11.0627C45.2383 10.8984 44.7879 10.8204 44.3354 10.8332C43.4545 10.8581 42.618 11.2256 42.0037 11.8575C41.3894 12.4894 41.0457 13.336 41.0457 14.2172C41.0457 15.0985 41.3894 15.9451 42.0037 16.577C42.618 17.2089 43.4545 17.5764 44.3354 17.6013ZM50.4292 14.2172C50.4463 15.0281 50.3013 15.8342 50.0028 16.5884C49.7043 17.3425 49.2583 18.0295 48.6909 18.609C48.1235 19.1885 47.4461 19.6489 46.6984 19.9632C45.9507 20.2775 45.1478 20.4395 44.3368 20.4395C43.5257 20.4395 42.7228 20.2775 41.9752 19.9632C41.2275 19.6489 40.5501 19.1885 39.9827 18.609C39.4152 18.0295 38.9692 17.3425 38.6707 16.5884C38.3722 15.8342 38.2273 15.0281 38.2444 14.2172C38.278 12.6237 38.9346 11.1067 40.0735 9.99159C41.2124 8.87646 42.7429 8.25195 44.3368 8.25195C45.9307 8.25195 47.4612 8.87646 48.6 9.99159C49.7389 11.1067 50.3956 12.6237 50.4292 14.2172ZM40.2431 31.5438L40.342 31.6413C40.9386 32.2011 41.7314 32.5036 42.5493 32.4836L42.6021 32.4877C42.6183 32.4913 42.6359 32.4931 42.6549 32.4931L46.9029 32.4877C47.8608 32.4868 48.779 32.1054 49.4557 31.4275C50.1324 30.7495 50.512 29.8306 50.5111 28.8727C50.5102 27.9149 50.1288 26.9966 49.4509 26.3199C48.773 25.6433 47.854 25.2636 46.8961 25.2645H44.2474C43.9766 25.2645 42.013 23.1967 40.5505 21.6123C40.0361 21.0526 39.4114 20.6053 38.7158 20.2986C38.0201 19.9919 37.2686 19.8325 36.5083 19.8303H29.9325L30.5663 32.4917H34.7411C35.5861 32.4892 36.4221 32.3184 37.2003 31.9893C37.9776 31.6576 39.1693 30.6636 39.2668 30.5661C39.3589 30.474 40.1524 31.4341 40.2364 31.5357L40.2431 31.5438ZM36.1373 29.499L36.2009 29.4652C36.2488 29.4381 36.3102 29.4011 36.3851 29.3541C36.5368 29.2593 36.706 29.1402 36.874 29.0156C37.0604 28.8768 37.2428 28.7328 37.421 28.5836C38.3419 27.721 39.432 27.8212 39.8585 27.9119C40.3027 28.0067 40.6182 28.1909 40.7333 28.26C40.9282 28.3791 41.1109 28.517 41.2791 28.6716C41.4795 28.8517 41.6718 29.0603 41.8004 29.2025C41.944 29.3609 42.078 29.5166 42.1728 29.629L42.227 29.694C42.2552 29.716 42.2861 29.7343 42.3191 29.7482M36.1373 29.499C35.6945 29.6872 35.2192 29.782 34.7384 29.7847H33.1419L32.7803 22.5386H36.5083C37.2721 22.5386 38.0182 22.8636 38.5599 23.45C39.2979 24.2489 40.1795 25.1887 40.9216 25.9376C41.2872 26.3072 41.6501 26.662 41.9589 26.9383C42.1078 27.0696 42.2906 27.2281 42.4843 27.3676C42.5777 27.4353 42.7294 27.5395 42.9203 27.6397L42.9284 27.6438C43.0395 27.7034 43.5514 27.9729 44.2474 27.9729H46.8961C47.1357 27.9725 47.3656 28.0673 47.5352 28.2365C47.7049 28.4056 47.8004 28.6352 47.8007 28.8747C47.8011 29.1143 47.7063 29.3442 47.5371 29.5138C47.368 29.6835 47.1384 29.779 46.8989 29.7793L42.7822 29.7834C42.7047 29.7773 42.627 29.7746 42.5493 29.7753H42.4789C42.4243 29.7771 42.37 29.7678 42.3191 29.7482"/>
</mask>
<path fill-rule="evenodd" clip-rule="evenodd" d="M8.125 39.2707C8.125 38.5524 8.41034 37.8635 8.91825 37.3556C9.42616 36.8477 10.115 36.5623 10.8333 36.5623H14.8958C15.6141 36.5623 16.303 36.8477 16.8109 37.3556C17.3188 37.8635 17.6042 38.5524 17.6042 39.2707V54.1611C17.6042 54.8794 17.3188 55.5683 16.8109 56.0762C16.303 56.5841 15.6141 56.8694 14.8958 56.8694H10.8333C10.115 56.8694 9.42616 56.5841 8.91825 56.0762C8.41034 55.5683 8.125 54.8794 8.125 54.1611V39.2707ZM10.8333 39.2707V54.1611H14.8958V39.272L10.8333 39.2707ZM26.1341 25.836L26.1611 25.8089C26.3242 25.645 26.4154 25.4229 26.4148 25.1917C26.4142 24.9605 26.3217 24.739 26.1578 24.5759C25.9938 24.4129 25.7718 24.3216 25.5406 24.3223C25.3094 24.3229 25.0878 24.4154 24.9248 24.5793L22.2706 27.2511C22.0187 27.5046 21.719 27.7056 21.389 27.8428C21.059 27.9799 20.7051 28.0503 20.3477 28.0501H16.8472C16.6163 28.0501 16.3948 28.1418 16.2315 28.3051C16.0682 28.4684 15.9765 28.6899 15.9765 28.9208C15.9765 29.1517 16.0682 29.3732 16.2315 29.5365C16.3948 29.6998 16.6163 29.7915 16.8472 29.7915H20.5847C21.1298 29.7915 21.6693 29.6818 22.1711 29.4689C22.6729 29.2561 23.1268 28.9444 23.5056 28.5525L26.1341 25.836ZM20.3491 25.3404H16.8458C15.8964 25.3404 14.9859 25.7175 14.3146 26.3888C13.6432 27.0602 13.2661 27.9707 13.2661 28.9201C13.2661 29.8695 13.6432 30.78 14.3146 31.4514C14.9859 32.1227 15.8964 32.4998 16.8458 32.4998H20.5833C21.4917 32.5 22.3909 32.3174 23.2272 31.9628C24.0636 31.6083 24.82 31.0891 25.4516 30.4361L28.0786 27.7183C28.7481 27.0452 29.1228 26.1338 29.1202 25.1845C29.1177 24.2353 28.7381 23.3259 28.0651 22.6564C27.3921 21.987 26.4806 21.6123 25.5314 21.6148C24.5821 21.6174 23.6727 21.9969 23.0032 22.67L20.3491 25.3404ZM44.3354 17.6013C44.7879 17.6141 45.2383 17.536 45.6601 17.3717C46.0818 17.2074 46.4664 16.9602 46.7909 16.6447C47.1155 16.3292 47.3735 15.9518 47.5496 15.5349C47.7258 15.1179 47.8166 14.6699 47.8166 14.2172C47.8166 13.7646 47.7258 13.3166 47.5496 12.8996C47.3735 12.4827 47.1155 12.1053 46.7909 11.7898C46.4664 11.4743 46.0818 11.2271 45.6601 11.0627C45.2383 10.8984 44.7879 10.8204 44.3354 10.8332C43.4545 10.8581 42.618 11.2256 42.0037 11.8575C41.3894 12.4894 41.0457 13.336 41.0457 14.2172C41.0457 15.0985 41.3894 15.9451 42.0037 16.577C42.618 17.2089 43.4545 17.5764 44.3354 17.6013ZM50.4292 14.2172C50.4463 15.0281 50.3013 15.8342 50.0028 16.5884C49.7043 17.3425 49.2583 18.0295 48.6909 18.609C48.1235 19.1885 47.4461 19.6489 46.6984 19.9632C45.9507 20.2775 45.1478 20.4395 44.3368 20.4395C43.5257 20.4395 42.7228 20.2775 41.9752 19.9632C41.2275 19.6489 40.5501 19.1885 39.9827 18.609C39.4152 18.0295 38.9692 17.3425 38.6707 16.5884C38.3722 15.8342 38.2273 15.0281 38.2444 14.2172C38.278 12.6237 38.9346 11.1067 40.0735 9.99159C41.2124 8.87646 42.7429 8.25195 44.3368 8.25195C45.9307 8.25195 47.4612 8.87646 48.6 9.99159C49.7389 11.1067 50.3956 12.6237 50.4292 14.2172ZM40.2431 31.5438L40.342 31.6413C40.9386 32.2011 41.7314 32.5036 42.5493 32.4836L42.6021 32.4877C42.6183 32.4913 42.6359 32.4931 42.6549 32.4931L46.9029 32.4877C47.8608 32.4868 48.779 32.1054 49.4557 31.4275C50.1324 30.7495 50.512 29.8306 50.5111 28.8727C50.5102 27.9149 50.1288 26.9966 49.4509 26.3199C48.773 25.6433 47.854 25.2636 46.8961 25.2645H44.2474C43.9766 25.2645 42.013 23.1967 40.5505 21.6123C40.0361 21.0526 39.4114 20.6053 38.7158 20.2986C38.0201 19.9919 37.2686 19.8325 36.5083 19.8303H29.9325L30.5663 32.4917H34.7411C35.5861 32.4892 36.4221 32.3184 37.2003 31.9893C37.9776 31.6576 39.1693 30.6636 39.2668 30.5661C39.3589 30.474 40.1524 31.4341 40.2364 31.5357L40.2431 31.5438ZM36.1373 29.499L36.2009 29.4652C36.2488 29.4381 36.3102 29.4011 36.3851 29.3541C36.5368 29.2593 36.706 29.1402 36.874 29.0156C37.0604 28.8768 37.2428 28.7328 37.421 28.5836C38.3419 27.721 39.432 27.8212 39.8585 27.9119C40.3027 28.0067 40.6182 28.1909 40.7333 28.26C40.9282 28.3791 41.1109 28.517 41.2791 28.6716C41.4795 28.8517 41.6718 29.0603 41.8004 29.2025C41.944 29.3609 42.078 29.5166 42.1728 29.629L42.227 29.694C42.2552 29.716 42.2861 29.7343 42.3191 29.7482M36.1373 29.499C35.6945 29.6872 35.2192 29.782 34.7384 29.7847H33.1419L32.7803 22.5386H36.5083C37.2721 22.5386 38.0182 22.8636 38.5599 23.45C39.2979 24.2489 40.1795 25.1887 40.9216 25.9376C41.2872 26.3072 41.6501 26.662 41.9589 26.9383C42.1078 27.0696 42.2906 27.2281 42.4843 27.3676C42.5777 27.4353 42.7294 27.5395 42.9203 27.6397L42.9284 27.6438C43.0395 27.7034 43.5514 27.9729 44.2474 27.9729H46.8961C47.1357 27.9725 47.3656 28.0673 47.5352 28.2365C47.7049 28.4056 47.8004 28.6352 47.8007 28.8747C47.8011 29.1143 47.7063 29.3442 47.5371 29.5138C47.368 29.6835 47.1384 29.779 46.8989 29.7793L42.7822 29.7834C42.7047 29.7773 42.627 29.7746 42.5493 29.7753H42.4789C42.4243 29.7771 42.37 29.7678 42.3191 29.7482" fill="black"/>
<path d="M8.125 54.1611H7.125H8.125ZM10.8333 39.2707L10.8337 38.2707L9.83333 38.2703V39.2707H10.8333ZM10.8333 54.1611H9.83333V55.1611H10.8333V54.1611ZM14.8958 54.1611V55.1611H15.8958V54.1611H14.8958ZM14.8958 39.272H15.8958V38.2724L14.8962 38.272L14.8958 39.272ZM26.1341 25.836L25.427 25.1289L25.4211 25.1347L25.4154 25.1406L26.1341 25.836ZM26.1611 25.8089L26.8683 26.516L26.8702 26.5141L26.1611 25.8089ZM24.9248 24.5793L24.2157 23.8742L24.2154 23.8746L24.9248 24.5793ZM22.2706 27.2511L22.9798 27.9561L22.9801 27.9559L22.2706 27.2511ZM20.3477 28.0501L20.3485 27.0501H20.3477V28.0501ZM20.5847 29.7915V30.7915H20.5847L20.5847 29.7915ZM23.5056 28.5525L22.787 27.8571L22.7866 27.8575L23.5056 28.5525ZM20.3491 25.3404V26.3404H20.7651L21.0583 26.0453L20.3491 25.3404ZM16.8458 25.3404V24.3404V25.3404ZM16.8458 32.4998V33.4998V32.4998ZM20.5833 32.4998L20.5835 31.4998H20.5833V32.4998ZM25.4516 30.4361L26.1704 31.1313L26.1706 31.1311L25.4516 30.4361ZM28.0786 27.7183L27.3697 27.0131L27.3646 27.0181L27.3596 27.0233L28.0786 27.7183ZM23.0032 22.67L22.2942 21.9647L22.294 21.965L23.0032 22.67ZM44.3354 17.6013L44.3071 18.6009L44.3354 17.6013ZM44.3354 10.8332L44.3071 9.83358L44.3354 10.8332ZM50.4292 14.2172L49.4294 14.2383L50.4292 14.2172ZM38.2444 14.2172L39.2442 14.2383L38.2444 14.2172ZM40.2431 31.5438L39.4749 32.184L39.5062 32.2215L39.5409 32.2558L40.2431 31.5438ZM40.342 31.6413L39.6398 32.3533L39.6487 32.362L39.6578 32.3706L40.342 31.6413ZM42.5493 32.4836L42.6259 31.4865L42.5754 31.4827L42.5248 31.4839L42.5493 32.4836ZM42.6021 32.4877L42.819 31.5115L42.7496 31.496L42.6787 31.4906L42.6021 32.4877ZM42.6549 32.4931V33.4931L42.6562 33.4931L42.6549 32.4931ZM46.9029 32.4877L46.902 31.4877H46.9016L46.9029 32.4877ZM46.8961 25.2645V26.2645H46.8971L46.8961 25.2645ZM40.5505 21.6123L39.8142 22.289L39.8157 22.2906L40.5505 21.6123ZM36.5083 19.8303L36.5112 18.8303H36.5083V19.8303ZM29.9325 19.8303V18.8303H28.8812L28.9338 19.8803L29.9325 19.8303ZM30.5663 32.4917L29.5675 32.5417L29.6151 33.4917H30.5663V32.4917ZM34.7411 32.4917V33.4917L34.7442 33.4917L34.7411 32.4917ZM37.2003 31.9893L37.5897 32.9104L37.5929 32.909L37.2003 31.9893ZM39.2668 30.5661L39.9739 31.2732L39.2668 30.5661ZM40.2364 31.5357L39.4656 32.1728L39.4682 32.1759L40.2364 31.5357ZM36.1373 29.499L36.5285 30.4193L36.5685 30.4023L36.6069 30.3819L36.1373 29.499ZM36.2009 29.4652L36.6706 30.348L36.6821 30.3419L36.6935 30.3354L36.2009 29.4652ZM36.3851 29.3541L35.8551 28.5061L35.8542 28.5067L36.3851 29.3541ZM36.874 29.0156L37.4698 29.8187L37.471 29.8178L36.874 29.0156ZM37.421 28.5836L38.0629 29.3504L38.0843 29.3325L38.1047 29.3134L37.421 28.5836ZM39.8585 27.9119L40.0673 26.934L40.0666 26.9338L39.8585 27.9119ZM40.7333 28.26L41.2552 27.4069L41.2478 27.4025L40.7333 28.26ZM41.2791 28.6716L40.6021 29.4078L40.6107 29.4154L41.2791 28.6716ZM41.8004 29.2025L41.0589 29.8734L41.0593 29.8739L41.8004 29.2025ZM42.1728 29.629L42.941 28.9888L42.9372 28.9843L42.1728 29.629ZM42.227 29.694L41.4588 30.3342L41.527 30.4161L41.611 30.4818L42.227 29.694ZM42.3191 29.7482L41.9298 30.6693L41.9441 30.6754L41.9586 30.681L42.3191 29.7482ZM34.7384 29.7847V30.7848L34.7441 30.7847L34.7384 29.7847ZM33.1419 29.7847L32.1431 29.8346L32.1905 30.7847H33.1419V29.7847ZM32.7803 22.5386V21.5386H31.7292L31.7816 22.5884L32.7803 22.5386ZM38.5599 23.45L39.2945 22.7714L39.2944 22.7714L38.5599 23.45ZM40.9216 25.9376L41.6326 25.2344L41.6319 25.2337L40.9216 25.9376ZM41.9589 26.9383L41.292 27.6835L41.2975 27.6883L41.9589 26.9383ZM42.4843 27.3676L43.071 26.5578L43.0687 26.5561L42.4843 27.3676ZM42.9203 27.6397L42.4556 28.5252L42.4643 28.5298L42.4731 28.5342L42.9203 27.6397ZM42.9284 27.6438L43.4013 26.7626L43.3885 26.7558L43.3757 26.7494L42.9284 27.6438ZM46.8961 27.9729V28.9729L46.8976 28.9729L46.8961 27.9729ZM46.8989 29.7793L46.8998 30.7793L46.9004 30.7793L46.8989 29.7793ZM42.7822 29.7834L42.7044 30.7804L42.7437 30.7834L42.7832 30.7834L42.7822 29.7834ZM42.5493 29.7753V30.7753L42.5574 30.7752L42.5493 29.7753ZM42.4789 29.7753V28.7753H42.4624L42.4459 28.7758L42.4789 29.7753ZM9.125 39.2707C9.125 38.8176 9.30498 38.3831 9.62536 38.0627L8.21115 36.6485C7.5157 37.3439 7.125 38.2872 7.125 39.2707H9.125ZM9.62536 38.0627C9.94573 37.7423 10.3803 37.5623 10.8333 37.5623V35.5623C9.84982 35.5623 8.90659 35.953 8.21115 36.6485L9.62536 38.0627ZM10.8333 37.5623H14.8958V35.5623H10.8333V37.5623ZM14.8958 37.5623C15.3489 37.5623 15.7834 37.7423 16.1038 38.0627L17.518 36.6485C16.8226 35.953 15.8793 35.5623 14.8958 35.5623V37.5623ZM16.1038 38.0627C16.4242 38.3831 16.6042 38.8176 16.6042 39.2707H18.6042C18.6042 38.2872 18.2135 37.3439 17.518 36.6485L16.1038 38.0627ZM16.6042 39.2707V54.1611H18.6042V39.2707H16.6042ZM16.6042 54.1611C16.6042 54.6142 16.4242 55.0487 16.1038 55.3691L17.518 56.7833C18.2135 56.0878 18.6042 55.1446 18.6042 54.1611H16.6042ZM16.1038 55.3691C15.7834 55.6894 15.3489 55.8694 14.8958 55.8694V57.8694C15.8793 57.8694 16.8226 57.4787 17.518 56.7833L16.1038 55.3691ZM14.8958 55.8694H10.8333V57.8694H14.8958V55.8694ZM10.8333 55.8694C10.3803 55.8694 9.94573 55.6894 9.62536 55.3691L8.21115 56.7833C8.90659 57.4787 9.84982 57.8694 10.8333 57.8694V55.8694ZM9.62536 55.3691C9.30499 55.0487 9.125 54.6142 9.125 54.1611H7.125C7.125 55.1446 7.5157 56.0878 8.21115 56.7833L9.62536 55.3691ZM9.125 54.1611V39.2707H7.125V54.1611H9.125ZM9.83333 39.2707V54.1611H11.8333V39.2707H9.83333ZM10.8333 55.1611H14.8958V53.1611H10.8333V55.1611ZM15.8958 54.1611V39.272H13.8958V54.1611H15.8958ZM14.8962 38.272L10.8337 38.2707L10.833 40.2707L14.8955 40.272L14.8962 38.272ZM26.8412 26.5431L26.8683 26.516L25.454 25.1018L25.427 25.1289L26.8412 26.5431ZM26.8702 26.5141C27.2203 26.1621 27.4162 25.6854 27.4148 25.189L25.4148 25.1945C25.4147 25.1605 25.4281 25.1278 25.4521 25.1037L26.8702 26.5141ZM27.4148 25.189C27.4134 24.6925 27.2149 24.217 26.8629 23.8669L25.4526 25.285C25.4285 25.261 25.4149 25.2285 25.4148 25.1945L27.4148 25.189ZM26.8629 23.8669C26.5109 23.5168 26.0343 23.3209 25.5378 23.3223L25.5433 25.3223C25.5093 25.3224 25.4767 25.309 25.4526 25.285L26.8629 23.8669ZM25.5378 23.3223C25.0414 23.3236 24.5658 23.5222 24.2157 23.8742L25.6338 25.2845C25.6099 25.3086 25.5773 25.3222 25.5433 25.3223L25.5378 23.3223ZM24.2154 23.8746L21.5612 26.5463L22.9801 27.9559L25.6342 25.2841L24.2154 23.8746ZM21.5614 26.5461C21.4025 26.706 21.2135 26.8328 21.0053 26.9193L21.7727 28.7662C22.2246 28.5785 22.6348 28.3031 22.9798 27.9561L21.5614 26.5461ZM21.0053 26.9193C20.7972 27.0058 20.5739 27.0502 20.3485 27.0501L20.3469 29.0501C20.8363 29.0504 21.3208 28.954 21.7727 28.7662L21.0053 26.9193ZM20.3477 27.0501H16.8472V29.0501H20.3477V27.0501ZM16.8472 27.0501C16.351 27.0501 15.8752 27.2471 15.5244 27.598L16.9386 29.0122C16.9144 29.0364 16.8815 29.0501 16.8472 29.0501V27.0501ZM15.5244 27.598C15.1736 27.9488 14.9765 28.4246 14.9765 28.9208H16.9765C16.9765 28.9551 16.9628 28.9879 16.9386 29.0122L15.5244 27.598ZM14.9765 28.9208C14.9765 29.4169 15.1736 29.8928 15.5244 30.2436L16.9386 28.8294C16.9628 28.8536 16.9765 28.8865 16.9765 28.9208H14.9765ZM15.5244 30.2436C15.8752 30.5944 16.351 30.7915 16.8472 30.7915V28.7915C16.8815 28.7915 16.9144 28.8051 16.9386 28.8294L15.5244 30.2436ZM16.8472 30.7915H20.5847V28.7915H16.8472V30.7915ZM20.5847 30.7915C21.264 30.7915 21.9363 30.6548 22.5616 30.3895L21.7806 28.5483C21.4023 28.7088 20.9956 28.7915 20.5847 28.7915L20.5847 30.7915ZM22.5616 30.3895C23.187 30.1243 23.7525 29.7359 24.2246 29.2474L22.7866 27.8575C22.501 28.1529 22.1589 28.3879 21.7806 28.5483L22.5616 30.3895ZM24.2243 29.2478L26.8527 26.5314L25.4154 25.1406L22.787 27.8571L24.2243 29.2478ZM20.3491 24.3404H16.8458V26.3404H20.3491V24.3404ZM16.8458 24.3404C15.6312 24.3404 14.4663 24.8229 13.6075 25.6817L15.0217 27.096C15.5055 26.6122 16.1616 26.3404 16.8458 26.3404L16.8458 24.3404ZM13.6075 25.6817C12.7486 26.5406 12.2661 27.7055 12.2661 28.9201H14.2661C14.2661 28.2359 14.5379 27.5798 15.0217 27.096L13.6075 25.6817ZM12.2661 28.9201C12.2661 30.1347 12.7486 31.2996 13.6075 32.1585L15.0217 30.7443C14.5379 30.2605 14.2661 29.6043 14.2661 28.9201H12.2661ZM13.6075 32.1585C14.4663 33.0173 15.6312 33.4998 16.8458 33.4998L16.8458 31.4998C16.1616 31.4998 15.5055 31.2281 15.0217 30.7443L13.6075 32.1585ZM16.8458 33.4998H20.5833V31.4998H16.8458V33.4998ZM20.5831 33.4998C21.6257 33.5 22.6577 33.2904 23.6175 32.8835L22.8369 31.0422C22.1241 31.3443 21.3578 31.5 20.5835 31.4998L20.5831 33.4998ZM23.6175 32.8835C24.5774 32.4766 25.4456 31.8807 26.1704 31.1313L24.7327 29.7409C24.1945 30.2974 23.5498 30.74 22.8369 31.0422L23.6175 32.8835ZM26.1706 31.1311L28.7977 28.4133L27.3596 27.0233L24.7326 29.7411L26.1706 31.1311ZM28.7876 28.4235C29.6441 27.5624 30.1235 26.3964 30.1202 25.1819L28.1202 25.1872C28.1221 25.8713 27.8521 26.5281 27.3697 27.0131L28.7876 28.4235ZM30.1202 25.1819C30.117 23.9674 29.6314 22.8039 28.7703 21.9474L27.3599 23.3654C27.8449 23.8478 28.1184 24.5031 28.1202 25.1872L30.1202 25.1819ZM28.7703 21.9474C27.9092 21.0909 26.7432 20.6116 25.5287 20.6148L25.534 22.6148C26.2181 22.613 26.8749 22.883 27.3599 23.3654L28.7703 21.9474ZM25.5287 20.6148C24.3142 20.6181 23.1507 21.1037 22.2942 21.9647L23.7122 23.3752C24.1946 22.8902 24.85 22.6167 25.534 22.6148L25.5287 20.6148ZM22.294 21.965L19.6398 24.6354L21.0583 26.0453L23.7125 23.3749L22.294 21.965ZM44.3071 18.6009C44.8932 18.6175 45.4767 18.5164 46.0231 18.3035L45.2971 16.4399C44.9999 16.5557 44.6825 16.6107 44.3637 16.6017L44.3071 18.6009ZM46.0231 18.3035C46.5694 18.0907 47.0675 17.7704 47.488 17.3617L46.0939 15.9277C45.8652 16.15 45.5942 16.3242 45.2971 16.4399L46.0231 18.3035ZM47.488 17.3617C47.9084 16.953 48.2426 16.4642 48.4708 15.9241L46.6285 15.1457C46.5044 15.4395 46.3226 15.7054 46.0939 15.9277L47.488 17.3617ZM48.4708 15.9241C48.699 15.384 48.8166 14.8036 48.8166 14.2172H46.8166C46.8166 14.5362 46.7526 14.8519 46.6285 15.1457L48.4708 15.9241ZM48.8166 14.2172C48.8166 13.6309 48.699 13.0505 48.4708 12.5104L46.6285 13.2888C46.7526 13.5826 46.8166 13.8983 46.8166 14.2172H48.8166ZM48.4708 12.5104C48.2426 11.9703 47.9084 11.4814 47.488 11.0727L46.0939 12.5068C46.3226 12.7291 46.5044 12.995 46.6285 13.2888L48.4708 12.5104ZM47.488 11.0727C47.0675 10.664 46.5694 10.3438 46.0231 10.131L45.2971 11.9945C45.5943 12.1103 45.8652 12.2845 46.0939 12.5068L47.488 11.0727ZM46.0231 10.131C45.4767 9.91812 44.8932 9.817 44.3071 9.83358L44.3637 11.8328C44.6825 11.8238 44.9999 11.8788 45.2971 11.9945L46.0231 10.131ZM44.3071 9.83358C43.166 9.86587 42.0824 10.3419 41.2867 11.1604L42.7207 12.5545C43.1536 12.1093 43.743 11.8503 44.3637 11.8328L44.3071 9.83358ZM41.2867 11.1604C40.4909 11.979 40.0457 13.0756 40.0457 14.2172H42.0457C42.0457 13.5963 42.2879 12.9998 42.7207 12.5545L41.2867 11.1604ZM40.0457 14.2172C40.0457 15.3589 40.4909 16.4555 41.2867 17.274L42.7207 15.88C42.2879 15.4347 42.0457 14.8382 42.0457 14.2172H40.0457ZM41.2867 17.274C42.0824 18.0926 43.166 18.5686 44.3071 18.6009L44.3637 16.6017C43.743 16.5841 43.1536 16.3252 42.7207 15.88L41.2867 17.274ZM49.4294 14.2383C49.4437 14.9161 49.3225 15.59 49.073 16.2203L50.9326 16.9564C51.2801 16.0785 51.4489 15.1401 51.4289 14.1962L49.4294 14.2383ZM49.073 16.2203C48.8235 16.8507 48.4507 17.4249 47.9764 17.9094L49.4054 19.3086C50.0659 18.634 50.5852 17.8343 50.9326 16.9564L49.073 16.2203ZM47.9764 17.9094C47.5021 18.3938 46.9358 18.7786 46.3108 19.0414L47.0859 20.8851C47.9563 20.5192 48.7449 19.9832 49.4054 19.3086L47.9764 17.9094ZM46.3108 19.0414C45.6859 19.3041 45.0147 19.4395 44.3368 19.4395V21.4395C45.2809 21.4395 46.2156 21.251 47.0859 20.8851L46.3108 19.0414ZM44.3368 19.4395C43.6588 19.4395 42.9877 19.3041 42.3627 19.0414L41.5876 20.8851C42.458 21.251 43.3926 21.4395 44.3368 21.4395V19.4395ZM42.3627 19.0414C41.7377 18.7786 41.1715 18.3938 40.6972 17.9094L39.2681 19.3086C39.9287 19.9832 40.7172 20.5192 41.5876 20.8851L42.3627 19.0414ZM40.6972 17.9094C40.2229 17.4249 39.85 16.8507 39.6005 16.2203L37.7409 16.9564C38.0884 17.8343 38.6076 18.634 39.2681 19.3086L40.6972 17.9094ZM39.6005 16.2203C39.351 15.59 39.2299 14.9161 39.2442 14.2383L37.2446 14.1962C37.2247 15.1401 37.3934 16.0785 37.7409 16.9564L39.6005 16.2203ZM39.2442 14.2383C39.2722 12.9063 39.8211 11.6382 40.7731 10.7061L39.3739 9.27707C38.0481 10.5752 37.2837 12.3411 37.2446 14.1962L39.2442 14.2383ZM40.7731 10.7061C41.7251 9.77398 43.0044 9.25195 44.3368 9.25195V7.25195C42.4813 7.25195 40.6997 7.97895 39.3739 9.27707L40.7731 10.7061ZM44.3368 9.25195C45.6691 9.25195 46.9484 9.77398 47.9004 10.7061L49.2997 9.27707C47.9739 7.97895 46.1923 7.25195 44.3368 7.25195V9.25195ZM47.9004 10.7061C48.8524 11.6382 49.4013 12.9063 49.4294 14.2383L51.4289 14.1962C51.3898 12.3411 50.6254 10.5752 49.2997 9.27707L47.9004 10.7061ZM39.5409 32.2558L39.6398 32.3533L41.0442 30.9293L40.9453 30.8318L39.5409 32.2558ZM39.6578 32.3706C40.4459 33.11 41.4933 33.5097 42.5737 33.4833L42.5248 31.4839C41.9696 31.4975 41.4313 31.2921 41.0262 30.912L39.6578 32.3706ZM42.4726 33.4807L42.5254 33.4847L42.6787 31.4906L42.6259 31.4865L42.4726 33.4807ZM42.3852 33.4638C42.4816 33.4853 42.5728 33.4931 42.6549 33.4931V31.4931C42.6991 31.4931 42.7551 31.4973 42.819 31.5115L42.3852 33.4638ZM42.6562 33.4931L46.9042 33.4877L46.9016 31.4877L42.6536 31.4931L42.6562 33.4931ZM46.9039 33.4877C48.1269 33.4865 49.2994 32.9996 50.1635 32.1339L48.7479 30.721C48.2586 31.2112 47.5946 31.487 46.902 31.4877L46.9039 33.4877ZM50.1635 32.1339C51.0275 31.2683 51.5122 30.0948 51.5111 28.8718L49.5111 28.8736C49.5117 29.5663 49.2372 30.2308 48.7479 30.721L50.1635 32.1339ZM51.5111 28.8718C51.5099 27.6487 51.023 26.4762 50.1573 25.6122L48.7445 27.0277C49.2347 27.517 49.5104 28.181 49.5111 28.8736L51.5111 28.8718ZM50.1573 25.6122C49.2917 24.7481 48.1183 24.2634 46.8952 24.2645L46.8971 26.2645C47.5897 26.2639 48.2542 26.5384 48.7445 27.0277L50.1573 25.6122ZM46.8961 24.2645H44.2474V26.2645H46.8961V24.2645ZM44.2474 24.2645C44.3873 24.2645 44.4915 24.2957 44.5377 24.3113C44.5901 24.3291 44.6264 24.3472 44.6418 24.3553C44.6714 24.3709 44.6789 24.3783 44.6568 24.3623C44.6151 24.3322 44.5399 24.2714 44.4269 24.1705C44.2053 23.9728 43.906 23.6823 43.5566 23.3292C42.8615 22.6267 42.0143 21.7238 41.2853 20.9341L39.8157 22.2906C40.5492 23.0853 41.4151 24.0084 42.135 24.736C42.4932 25.0979 42.827 25.4234 43.0954 25.6629C43.2274 25.7806 43.3615 25.8937 43.4848 25.9829C43.5451 26.0265 43.624 26.0799 43.7129 26.1265C43.7649 26.1538 43.9724 26.2645 44.2474 26.2645V24.2645ZM41.2868 20.9357C40.6791 20.2744 39.9411 19.7459 39.1192 19.3836L38.3124 21.2136C38.8818 21.4647 39.3931 21.8308 39.8142 22.289L41.2868 20.9357ZM39.1192 19.3836C38.2973 19.0212 37.4094 18.8329 36.5112 18.8303L36.5054 20.8303C37.1278 20.8321 37.743 20.9626 38.3124 21.2136L39.1192 19.3836ZM36.5083 18.8303H29.9325V20.8303H36.5083V18.8303ZM28.9338 19.8803L29.5675 32.5417L31.565 32.4417L30.9313 19.7803L28.9338 19.8803ZM30.5663 33.4917H34.7411V31.4917H30.5663V33.4917ZM34.7442 33.4917C35.7219 33.4887 36.6892 33.2911 37.5897 32.9104L36.8109 31.0683C36.1549 31.3456 35.4503 31.4896 34.7381 31.4917L34.7442 33.4917ZM37.5929 32.909C38.0986 32.6932 38.6719 32.2989 39.0843 31.993C39.4949 31.6884 39.8689 31.3782 39.9739 31.2732L38.5597 29.859C38.5672 29.8515 38.2966 30.087 37.8926 30.3867C37.4905 30.6851 37.0793 30.9537 36.8078 31.0696L37.5929 32.909ZM39.9739 31.2732C39.6549 31.5921 39.2699 31.5733 39.1114 31.5443C38.9587 31.5162 38.8569 31.4578 38.8329 31.4441C38.7729 31.4095 38.7504 31.3848 38.7817 31.4125C38.8296 31.4551 38.9114 31.5379 39.0164 31.6528C39.2185 31.874 39.4241 32.1226 39.4656 32.1728L41.0071 30.8985C40.9646 30.8472 40.7315 30.5649 40.4929 30.3037C40.3775 30.1775 40.2383 30.0312 40.1089 29.9164C40.0516 29.8655 39.9513 29.7801 39.8299 29.7103C39.7753 29.6789 39.6469 29.6091 39.4724 29.5771C39.2922 29.544 38.8901 29.5285 38.5597 29.859L39.9739 31.2732ZM39.4682 32.1759L39.4749 32.184L41.0113 30.9036L41.0045 30.8954L39.4682 32.1759ZM36.6069 30.3819L36.6706 30.348L35.7313 28.5823L35.6677 28.6161L36.6069 30.3819ZM36.6935 30.3354C36.7597 30.298 36.8351 30.2523 36.916 30.2015L35.8542 28.5067C35.7853 28.5499 35.7379 28.5782 35.7083 28.5949L36.6935 30.3354ZM36.9151 30.2021C37.0985 30.0875 37.2916 29.9509 37.4698 29.8187L36.2781 28.2125C36.1205 28.3294 35.975 28.4312 35.8551 28.5061L36.9151 30.2021ZM37.471 29.8178C37.6727 29.6677 37.8701 29.5118 38.0629 29.3504L36.7791 27.8168C36.6156 27.9537 36.4481 28.086 36.277 28.2133L37.471 29.8178ZM38.1047 29.3134C38.6782 28.7762 39.3636 28.829 39.6505 28.89L40.0666 26.9338C39.5004 26.8134 38.0056 26.6658 36.7374 27.8538L38.1047 29.3134ZM39.6498 28.8899C39.9346 28.9507 40.139 29.0695 40.2188 29.1174L41.2478 27.4025C41.0975 27.3122 40.6708 27.0628 40.0673 26.934L39.6498 28.8899ZM40.2115 29.113C40.351 29.1983 40.4818 29.297 40.6022 29.4077L41.9559 27.9355C41.7401 27.737 41.5054 27.56 41.2552 27.4069L40.2115 29.113ZM40.6107 29.4154C40.7698 29.5584 40.9327 29.7339 41.0589 29.8734L42.542 28.5315C42.4108 28.3866 42.1891 28.145 41.9475 27.9278L40.6107 29.4154ZM41.0593 29.8739C41.1928 30.0212 41.3189 30.1676 41.4084 30.2737L42.9372 28.9843C42.8371 28.8656 42.6951 28.7005 42.5415 28.531L41.0593 29.8739ZM41.4046 30.2692L41.4588 30.3342L42.9952 29.0538L42.941 28.9888L41.4046 30.2692ZM41.611 30.4818C41.7085 30.558 41.8157 30.6211 41.9298 30.6693L42.7083 28.8271C42.7565 28.8474 42.8018 28.8741 42.8429 28.9062L41.611 30.4818ZM35.7461 28.5787C35.4296 28.7133 35.0858 28.7828 34.7328 28.7848L34.7441 30.7847C35.3526 30.7813 35.9594 30.6612 36.5285 30.4193L35.7461 28.5787ZM34.7384 28.7847H33.1419V30.7847H34.7384V28.7847ZM34.1406 29.7349L33.7791 22.4888L31.7816 22.5884L32.1431 29.8346L34.1406 29.7349ZM32.7803 23.5386H36.5083V21.5386H32.7803V23.5386ZM36.5083 23.5386C36.9879 23.5386 37.4694 23.7432 37.8254 24.1285L39.2944 22.7714C38.5671 21.984 37.5563 21.5386 36.5083 21.5386V23.5386ZM37.8253 24.1285C38.5655 24.9298 39.4566 25.8799 40.2113 26.6414L41.6319 25.2337C40.9024 24.4975 40.0303 23.568 39.2945 22.7714L37.8253 24.1285ZM40.2106 26.6407C40.5811 27.0154 40.9607 27.387 41.2921 27.6835L42.6257 26.193C42.3395 25.937 41.9933 25.5991 41.6326 25.2344L40.2106 26.6407ZM41.2975 27.6883C41.448 27.8211 41.6628 28.0082 41.8998 28.179L43.0687 26.5561C42.9185 26.4479 42.7676 26.3182 42.6203 26.1882L41.2975 27.6883ZM41.8975 28.1773C42.0125 28.2606 42.2068 28.3946 42.4556 28.5252L43.385 26.7543C43.252 26.6845 43.143 26.6099 43.071 26.5578L41.8975 28.1773ZM42.4731 28.5342L42.4812 28.5382L43.3757 26.7494L43.3675 26.7453L42.4731 28.5342ZM42.4556 28.525C42.6159 28.611 43.3039 28.9729 44.2474 28.9729V26.9729C43.7988 26.9729 43.463 26.7958 43.4013 26.7626L42.4556 28.525ZM44.2474 28.9729H46.8961V26.9729H44.2474V28.9729ZM46.8976 28.9729C46.872 28.9729 46.8474 28.9627 46.8292 28.9446L48.2413 27.5283C47.8838 27.1719 47.3994 26.9721 46.8946 26.9729L46.8976 28.9729ZM46.8292 28.9446C46.811 28.9265 46.8008 28.9019 46.8007 28.8762L48.8007 28.8732C48.8 28.3685 48.5987 27.8847 48.2413 27.5283L46.8292 28.9446ZM46.8007 28.8762C46.8007 28.8506 46.8109 28.8259 46.829 28.8078L48.2453 30.2199C48.6017 29.8624 48.8015 29.378 48.8007 28.8732L46.8007 28.8762ZM46.829 28.8078C46.8471 28.7896 46.8717 28.7794 46.8974 28.7793L46.9004 30.7793C47.4051 30.7786 47.8889 30.5773 48.2453 30.2199L46.829 28.8078ZM46.8979 28.7793L42.7812 28.7834L42.7832 30.7834L46.8998 30.7793L46.8979 28.7793ZM42.86 28.7864C42.7539 28.7781 42.6475 28.7744 42.5411 28.7753L42.5574 30.7752C42.6065 30.7748 42.6555 30.7765 42.7044 30.7804L42.86 28.7864ZM42.5493 28.7753H42.4789V30.7753H42.5493V28.7753ZM42.4459 28.7758C42.5257 28.7732 42.6051 28.7866 42.6795 28.8154L41.9586 30.681C42.1348 30.7491 42.323 30.7809 42.5118 30.7747L42.4459 28.7758Z" fill="white" mask="url(#path-3-outside-2_138_895)"/>
</svg>
