<svg width="52" height="52" viewBox="0 0 52 52" fill="none" xmlns="http://www.w3.org/2000/svg">
<path d="M14.2101 5.4165H15.1699C20.2247 6.164 21.5952 9.03267 26 9.03267C30.4048 9.03267 31.7753 6.164 36.8312 5.4165H37.375C38.7265 5.4165 40.0648 5.68271 41.3134 6.19991C42.5621 6.71712 43.6966 7.47519 44.6523 8.43086C45.608 9.38653 46.3661 10.5211 46.8833 11.7697C47.4005 13.0184 47.6667 14.3566 47.6667 15.7082V16.3863C47.6667 19.5313 44.3192 23.1214 43.3333 26.5231C42.2879 30.1349 41.5718 33.0881 41.3617 36.1767C40.8687 43.4144 38.4009 46.5832 35.75 46.5832C31.7915 46.5832 28.2772 30.3603 26.0682 30.3603C23.8582 30.3603 19.4762 46.5832 16.25 46.5832C14.2816 46.5832 11.7325 45.4186 10.7748 36.1767C10.3935 32.4998 9.75 30.2693 8.66666 26.5231C7.71333 23.2298 4.498 19.2951 4.33333 15.7634C4.27121 14.4277 4.48065 13.0934 4.94898 11.8409C5.41731 10.5885 6.1348 9.4441 7.05805 8.4769C7.98131 7.50969 9.09114 6.7398 10.3204 6.21377C11.5497 5.68775 12.873 5.41653 14.2101 5.4165Z" stroke="black" stroke-width="2"/>
<path d="M16.7722 13.5015L34.6677 19.2713M16.7722 19.2713L34.6677 13.5015" stroke="black" stroke-width="2" stroke-linecap="round"/>
</svg>
