<svg width="65" height="65" viewBox="0 0 65 65" fill="none" xmlns="http://www.w3.org/2000/svg">
<path d="M29.7917 56.8748L27.0834 46.0415L21.6667 37.9165V21.6665" stroke="black" stroke-width="2.5" stroke-linecap="round" stroke-linejoin="round"/>
<path d="M13.5417 37.9167L10.8333 29.7917L21.6667 21.6667L29.7917 27.0833L37.9167 28.4375M18.9583 46.0417L13.5417 56.875M43.3333 56.875V33.8542C43.3333 32.7767 43.7614 31.7434 44.5232 30.9815C45.2851 30.2197 46.3184 29.7917 47.3958 29.7917C48.4733 29.7917 49.5066 30.2197 50.2685 30.9815C51.0303 31.7434 51.4583 32.7767 51.4583 33.8542V35.2083M18.9583 10.8333C18.9583 11.5516 19.2437 12.2405 19.7516 12.7484C20.2595 13.2563 20.9484 13.5417 21.6667 13.5417C22.385 13.5417 23.0738 13.2563 23.5818 12.7484C24.0897 12.2405 24.375 11.5516 24.375 10.8333C24.375 10.115 24.0897 9.42616 23.5818 8.91825C23.0738 8.41034 22.385 8.125 21.6667 8.125C20.9484 8.125 20.2595 8.41034 19.7516 8.91825C19.2437 9.42616 18.9583 10.115 18.9583 10.8333Z" stroke="black" stroke-width="2.5" stroke-linecap="round" stroke-linejoin="round"/>
</svg>
